<svg width="24" height="19" viewBox="0 0 24 19" fill="none" xmlns="http://www.w3.org/2000/svg">
<path d="M19.3125 11.4975H17.1562C16.6385 11.4975 16.2188 11.9173 16.2188 12.435V13.56C16.2188 14.0778 16.6385 14.4975 17.1562 14.4975H19.3125C19.8303 14.4975 20.25 14.0778 20.25 13.56V12.435C20.25 11.9173 19.8303 11.4975 19.3125 11.4975Z" fill="#C3C8D1"/>
<path d="M23.0625 10.7475C23.5805 10.7475 24 10.328 24 9.81002V4.3669C24 2.29924 22.3177 0.616898 20.25 0.616898H3.75C1.68234 0.616898 0 2.29924 0 4.3669V14.4919C0 16.5596 1.68234 18.2419 3.75 18.2419H20.25C22.3177 18.2419 24 16.5596 24 14.4919C24 13.9739 23.5805 13.5544 23.0625 13.5544C22.5445 13.5544 22.125 13.9739 22.125 14.4919C22.125 15.526 21.2841 16.3669 20.25 16.3669H3.75C2.71594 16.3669 1.875 15.526 1.875 14.4919V6.99752H22.125V9.81002C22.125 10.328 22.5445 10.7475 23.0625 10.7475ZM1.875 5.12252V4.3669C1.875 3.33284 2.71594 2.4919 3.75 2.4919H20.25C21.2841 2.4919 22.125 3.33284 22.125 4.3669V5.12252H1.875Z" fill="#C3C8D1"/>
<path d="M4.6875 8.87253C4.16953 8.87253 3.75 9.29206 3.75 9.81003C3.75 10.328 4.16953 10.7475 4.6875 10.7475H12.4219C12.9398 10.7475 13.3594 10.328 13.3594 9.81003C13.3594 9.29206 12.9398 8.87253 12.4219 8.87253H4.6875Z" fill="#C3C8D1"/>
</svg>
