<svg width="654" height="40" viewBox="0 0 654 40" fill="none" xmlns="http://www.w3.org/2000/svg">
<g opacity="0.5">
<g clip-path="url(#clip0_3782_6377)">
<path d="M97.466 10.7939C97.529 10.498 97.504 10.1899 97.3942 9.90836C97.2845 9.62684 97.0948 9.38456 96.8491 9.2121C96.4998 8.96361 96.0776 8.84234 95.6514 8.86807C93.7625 8.86807 91.8739 8.86667 89.9856 8.86389C89.797 8.86389 89.7286 8.92427 89.6968 9.10905C89.3493 10.9603 88.997 12.8085 88.6399 14.6539C88.1365 17.273 87.632 19.8928 87.1265 22.5133C87.1158 22.546 87.1127 22.5809 87.1176 22.6151C87.1225 22.6492 87.1353 22.6818 87.1548 22.71H89.924C89.9644 22.6476 89.9892 22.5762 89.9964 22.5019C90.2846 20.9935 90.5715 19.4852 90.857 17.9772C90.8785 17.8643 90.9248 17.8367 91.0302 17.8377C91.4352 17.8426 91.8401 17.8426 92.2449 17.8377C93.0198 17.8343 93.7835 17.649 94.4758 17.2964C95.0717 17.0243 95.5937 16.6102 95.9972 16.0893C96.4007 15.5685 96.6736 14.9565 96.7926 14.3057C97.0152 13.1319 97.2552 11.9645 97.466 10.7939ZM93.9191 14.3364C93.8805 14.5333 93.7801 14.7124 93.6328 14.8469C93.4855 14.9814 93.2993 15.0641 93.1018 15.0827C92.5697 15.1434 92.0338 15.1608 91.499 15.1348C91.3828 15.1348 91.4311 15.0531 91.4419 15.0031C91.5535 14.4165 91.6676 13.8304 91.7807 13.2438C91.8773 12.7442 91.976 12.244 92.067 11.7427C92.0896 11.6194 92.1297 11.571 92.2685 11.5731C92.9881 11.583 93.7114 11.5772 94.4568 11.5772C94.2722 12.5141 94.097 13.4255 93.9155 14.3358L93.9191 14.3364Z" fill="#01AA00"/>
<path d="M115.157 8.87123C114.343 8.87123 113.53 8.878 112.713 8.86655C112.631 8.85663 112.548 8.87465 112.477 8.91764C112.406 8.96064 112.352 9.02609 112.324 9.10336C111.441 10.9468 110.7 12.8465 109.962 14.7482C109.943 14.7966 109.939 14.8523 109.879 14.8887V12.6279C109.876 11.4541 109.823 10.2836 109.722 9.11637C109.707 8.94254 109.659 8.86551 109.459 8.87123C108.619 8.88268 107.779 8.87852 106.94 8.87123C106.782 8.87123 106.711 8.8957 106.735 9.08254C106.91 10.4326 107.073 11.7842 107.24 13.1348C107.415 14.5478 107.593 15.9614 107.763 17.3749C107.817 17.6277 107.829 17.8874 107.8 18.1441C107.509 19.5886 107.224 21.034 106.944 22.4805C106.929 22.557 106.896 22.6439 106.976 22.71H109.804C109.83 22.647 109.852 22.5821 109.87 22.5159C110.104 21.3293 110.329 20.1416 110.571 18.9566C110.616 18.5375 110.72 18.1267 110.881 17.7366C112.364 14.87 113.841 12.0012 115.313 9.13043C115.433 8.89987 115.416 8.87123 115.157 8.87123Z" fill="#01AA00"/>
<path d="M104.765 8.86598C103.632 8.87258 102.499 8.87258 101.367 8.86598C101.308 8.85822 101.249 8.87225 101.2 8.90535C101.151 8.93845 101.117 8.98825 101.103 9.04508C100.864 9.67551 100.615 10.3013 100.366 10.9291C98.8499 14.7738 97.3336 18.6189 95.8176 22.4643C95.7859 22.5461 95.7347 22.6278 95.8028 22.7095H98.6853C98.8875 22.3305 99.0169 21.9203 99.1827 21.5252C99.3808 21.0483 99.5698 20.5678 99.7563 20.0857C99.7943 19.9863 99.8339 19.9369 99.9559 19.9389C100.59 19.9459 101.223 19.9459 101.857 19.9389C101.978 19.9389 102.006 19.9723 102.004 20.0878C102 20.8817 102.004 21.6767 102.004 22.4706C102 22.5516 102.011 22.6329 102.036 22.71H104.957C104.987 22.6409 104.999 22.5657 104.993 22.4909C104.993 18.0252 104.995 13.5595 105 9.09349C104.989 8.91805 104.946 8.86182 104.765 8.86598ZM102.369 12.6793C102.274 13.8479 102.178 15.0168 102.081 16.186C102.056 16.4874 102.028 16.7899 102.011 17.0913C102.003 17.2022 101.964 17.2402 101.845 17.2366C101.528 17.2282 101.207 17.2366 100.868 17.2366L102.347 12.4935C102.376 12.5501 102.384 12.6149 102.369 12.6767V12.6793Z" fill="#01AA00"/>
<path d="M63.9118 8.86408C63.5178 8.86883 63.1248 8.86408 62.7308 8.86408H61.5509C61.4495 8.86408 61.4054 8.88308 61.3846 9.00123C61.2603 9.70384 61.1234 10.4043 60.9921 11.1054C60.581 13.3092 60.1701 15.5132 59.7594 17.7174C59.4595 19.3209 59.1582 20.9236 58.8553 22.5254C58.8284 22.6662 58.8553 22.7116 59.0023 22.71C59.7711 22.7016 60.5398 22.7031 61.31 22.71C61.4302 22.71 61.4845 22.6794 61.5047 22.5518C61.562 22.2068 61.629 21.8623 61.6934 21.5179C62.1176 19.2388 62.5436 16.9599 62.9712 14.6812C63.3261 12.7896 63.673 10.8986 64.031 9.00809C64.0553 8.87517 64.0208 8.86197 63.9118 8.86408Z" fill="#1A1A1A"/>
<path d="M70.7765 20.1438C69.6471 20.1538 68.5188 20.1438 67.3895 20.1512C67.2548 20.1512 67.2199 20.1237 67.2465 19.9855C67.6347 17.9812 68.0203 15.9768 68.4034 13.9724C68.7195 12.3243 69.035 10.6766 69.3497 9.02953C69.3736 8.91032 69.358 8.86389 69.2197 8.86389C68.4197 8.87057 67.6189 8.87057 66.8175 8.86389C66.699 8.86389 66.6542 8.89713 66.6329 9.01528C66.5996 9.24315 66.5513 9.46785 66.5092 9.69308C65.6932 13.9656 64.8732 18.238 64.0493 22.5105C64.0108 22.7115 64.0763 22.711 64.2271 22.7099C65.2363 22.7057 66.245 22.7099 67.2543 22.7099H70.3189C70.4551 22.7099 70.5035 22.6703 70.5269 22.5395C70.6616 21.8122 70.7993 21.0853 70.9481 20.36C70.9818 20.1913 70.9616 20.1433 70.7765 20.1438Z" fill="#1A1A1A"/>
<path d="M48.2833 8.28936C47.1512 8.29702 46.0188 8.29702 44.8861 8.28936C44.832 8.28097 44.7769 8.29391 44.7319 8.32554C44.687 8.35717 44.6557 8.40509 44.6444 8.45946C44.1933 9.65385 43.735 10.8456 43.2793 12.0385L39.2765 22.5093C39.2006 22.7065 39.2016 22.7065 39.4156 22.7065H41.8788C41.9292 22.716 41.9811 22.7057 42.0243 22.6777C42.0674 22.6497 42.0985 22.6061 42.1113 22.5557C42.4413 21.6786 42.7851 20.8067 43.1197 19.9358C43.1301 19.887 43.1584 19.844 43.1988 19.8156C43.2392 19.7873 43.2887 19.7756 43.3373 19.7829C44.0352 19.7895 44.7331 19.7895 45.4311 19.7829C45.5614 19.7829 45.5963 19.8163 45.5922 19.9468C45.585 20.7942 45.5922 21.641 45.5799 22.4848C45.5799 22.6486 45.6071 22.7091 45.7852 22.7065C46.6001 22.695 47.416 22.6966 48.231 22.7065C48.3983 22.7065 48.4491 22.669 48.4486 22.4905C48.4421 20.1574 48.4421 17.8245 48.4486 15.4917H48.4614V8.47512C48.4634 8.33528 48.4337 8.28936 48.2833 8.28936ZM45.7467 15.0502C45.6954 15.6863 45.644 16.3224 45.5978 16.959C45.5891 17.0769 45.5583 17.1186 45.4367 17.1155C45.0826 17.1066 44.728 17.1098 44.3739 17.1155C44.2662 17.1155 44.2128 17.1098 44.2538 16.9731C44.8395 15.0522 45.4223 13.1307 46.0022 11.2088C46.0213 11.1592 46.043 11.1108 46.0674 11.0637C45.9576 12.4209 45.8519 13.7369 45.7467 15.0523V15.0502Z" fill="#1A1A1A"/>
<path d="M58.0064 14.505C56.875 14.5092 55.7441 14.505 54.6116 14.5097C54.4742 14.5097 54.4426 14.476 54.4691 14.3378C54.6484 13.4306 54.8232 12.5226 54.9936 11.614C55.0205 11.47 55.075 11.4247 55.2247 11.4252C56.5889 11.4326 57.9525 11.4252 59.3167 11.4357C59.5064 11.4357 59.5566 11.3714 59.5867 11.2005C59.7125 10.4832 59.8467 9.76866 59.9894 9.05695C60.0221 8.89133 59.9811 8.86917 59.8339 8.8697C58.6937 8.8755 57.5565 8.8697 56.4179 8.8697C55.2792 8.8697 54.1674 8.8755 53.0417 8.86389C52.8489 8.86389 52.7976 8.92824 52.7618 9.10547C52.5757 10.1277 52.3793 11.1488 52.1844 12.1678C51.5245 15.6191 50.8634 19.0702 50.2014 22.5212C50.1703 22.6794 50.217 22.7116 50.3642 22.71C51.1312 22.7031 51.8978 22.7016 52.6649 22.71C52.8276 22.71 52.8836 22.6646 52.9152 22.499C53.2407 20.7584 53.5755 19.0178 53.9 17.2725C53.9311 17.1069 53.9813 17.0615 54.1503 17.0615C55.275 17.07 56.4007 17.0615 57.5254 17.0684C57.6426 17.0684 57.7058 17.0499 57.7328 16.9186C57.8696 16.1738 58.0069 15.4286 58.1598 14.6838C58.1956 14.5171 58.1464 14.5039 58.0064 14.505Z" fill="#1A1A1A"/>
<path d="M85.3846 15.7834V9.05461C85.3846 8.90326 85.3466 8.86529 85.2027 8.86582C84.1466 8.8725 83.0901 8.8725 82.0333 8.86582C81.9808 8.85847 81.9275 8.87229 81.8844 8.90443C81.8413 8.93657 81.8115 8.98462 81.8013 9.03879C81.666 9.42111 81.5181 9.79869 81.3758 10.1789C79.8424 14.2893 78.3087 18.3992 76.7747 22.5085C76.7018 22.7036 76.7018 22.7036 76.913 22.7036C77.6729 22.7036 78.4364 22.7036 79.1983 22.7078C79.2541 22.7159 79.3108 22.7018 79.357 22.6684C79.4033 22.635 79.4358 22.5847 79.4481 22.5275C79.7521 21.7001 80.0682 20.8785 80.3742 20.0516C80.3847 19.9996 80.4138 19.9537 80.4555 19.923C80.4972 19.8922 80.5485 19.8791 80.5991 19.8861C81.2321 19.8945 81.8648 19.8945 82.4974 19.8861C82.6458 19.8861 82.6945 19.9209 82.6929 20.0838C82.6848 20.8891 82.6929 21.6943 82.6843 22.499C82.6843 22.6762 82.735 22.7068 82.89 22.7052C83.6499 22.6968 84.4139 22.6952 85.1753 22.7052C85.3471 22.7052 85.3749 22.6525 85.3739 22.4901C85.3692 20.2531 85.3692 18.0161 85.3739 15.7792L85.3846 15.7834ZM83.0618 12.4612C82.9398 14.0393 82.8177 15.6173 82.6955 17.1951C82.6884 17.2868 82.6798 17.3491 82.5638 17.3464C82.1828 17.3396 81.8038 17.3464 81.3986 17.3464C81.9644 15.4274 82.5227 13.5401 83.08 11.6512L83.119 11.6586C83.0987 11.9217 83.0861 12.1907 83.0618 12.4596V12.4612Z" fill="#1A1A1A"/>
<path d="M77.2086 8.86391C76.4027 8.86883 75.5973 8.86883 74.7924 8.86391C74.6971 8.86391 74.6713 8.89926 74.6566 8.99211C74.6059 9.30864 74.539 9.61883 74.4807 9.93167C74.0316 12.3384 73.5827 14.7444 73.1339 17.1497C72.7984 18.949 72.4617 20.7471 72.1238 22.544C72.1015 22.6621 72.1167 22.7154 72.2535 22.7096C72.6403 22.6996 73.0275 22.7096 73.4148 22.7096C73.802 22.7096 74.1892 22.7038 74.577 22.7096C74.6961 22.7096 74.7503 22.6796 74.7726 22.5514C74.8522 22.0739 74.9455 21.5975 75.0342 21.1217L76.3824 13.9037C76.6866 12.2689 76.9907 10.6335 77.2948 8.99737C77.3136 8.91244 77.3293 8.86285 77.2086 8.86391Z" fill="#1A1A1A"/>
<path d="M33.0223 11.0545C32.7566 11.0107 32.5291 10.9468 32.2939 10.9236C31.6642 10.8452 31.025 10.9134 30.426 11.1226C29.8271 11.3319 29.2846 11.6766 28.841 12.13C26.85 14.1017 24.8669 16.0805 22.8917 18.0664L16.654 24.2952C16.6069 24.3362 16.5645 24.3824 16.5276 24.4328C16.4937 24.479 16.4788 24.5364 16.486 24.5932C16.4932 24.65 16.522 24.7018 16.5663 24.738C16.6039 24.7771 16.6547 24.8006 16.7088 24.8039C16.7629 24.8073 16.8163 24.7902 16.8583 24.7561C16.9162 24.7087 16.9703 24.657 17.0203 24.6014C21.0642 20.5627 25.112 16.526 29.1634 12.4913C29.665 11.9816 30.2968 11.619 30.9902 11.4431C31.6835 11.2671 32.4119 11.2844 33.0961 11.4933C33.455 11.5869 33.7804 11.7794 34.035 12.049C34.6025 12.63 35.1829 13.1992 35.7576 13.7745C36.4992 14.5126 36.9182 15.5141 36.923 16.5601C36.9279 17.606 36.5181 18.6114 35.7834 19.3563C33.8452 21.3092 31.893 23.2476 29.945 25.1912C29.8727 25.2716 29.7848 25.3363 29.6866 25.3816C29.5885 25.4269 29.4821 25.4517 29.374 25.4546C29.2659 25.4574 29.1584 25.4382 29.058 25.3982C28.9575 25.3581 28.8663 25.298 28.7899 25.2216C28.7135 25.1452 28.6535 25.054 28.6135 24.9536C28.5735 24.8532 28.5544 24.7457 28.5573 24.6377C28.5603 24.5297 28.5852 24.4234 28.6306 24.3253C28.676 24.2273 28.7409 24.1395 28.8214 24.0673C29.2609 23.6234 29.7062 23.1837 30.1472 22.7413C30.2304 22.6699 30.298 22.5822 30.3457 22.4835C30.3934 22.3848 30.4203 22.2774 30.4246 22.1679C30.4289 22.0584 30.4105 21.9492 30.3707 21.8471C30.3308 21.745 30.2703 21.6522 30.193 21.5745C30.1157 21.4969 30.0231 21.4359 29.9211 21.3956C29.8192 21.3553 29.71 21.3364 29.6004 21.3401C29.4908 21.3439 29.3832 21.3702 29.2842 21.4173C29.1852 21.4645 29.097 21.5316 29.0252 21.6144C27.6264 23.0101 26.2282 24.4067 24.8304 25.8042C24.6956 25.9567 24.5072 26.0516 24.3044 26.0691C24.1015 26.0867 23.8996 26.0257 23.7405 25.8986C23.5814 25.7716 23.4773 25.5882 23.4497 25.3866C23.4221 25.1849 23.4732 24.9804 23.5923 24.8154C23.6461 24.7462 23.7051 24.6813 23.7687 24.621C25.671 22.7204 27.574 20.8206 29.4776 18.9217C29.6004 18.8185 29.6892 18.6807 29.7326 18.5263C29.7759 18.3719 29.7717 18.2081 29.7206 18.0561C29.6822 17.937 29.6159 17.8287 29.5271 17.7404C29.4384 17.652 29.3298 17.5862 29.2105 17.5482C29.0911 17.5103 28.9644 17.5014 28.8409 17.5223C28.7174 17.5432 28.6007 17.5933 28.5005 17.6684C28.4313 17.7222 28.3663 17.7812 28.306 17.8447C26.9389 19.2099 25.5713 20.5749 24.2031 21.9397C24.1103 22.0419 23.9925 22.1182 23.8613 22.1611C23.7301 22.204 23.5899 22.2121 23.4546 22.1846C23.3193 22.157 23.1935 22.0947 23.0896 22.0039C22.9857 21.9131 22.9072 21.7968 22.8618 21.6664C22.8274 21.5594 22.8145 21.4467 22.8238 21.3347C22.8331 21.2227 22.8644 21.1136 22.916 21.0138L22.8701 20.9772C22.8323 21.0376 22.79 21.0952 22.7437 21.1494C19.8178 24.0708 16.8931 26.9922 13.9693 29.9136C13.8706 30.0318 13.7407 30.1201 13.5944 30.1684C13.448 30.2166 13.2911 30.223 13.1413 30.1868C13.0056 30.1531 12.8812 30.0842 12.7807 29.9871C12.6802 29.89 12.6072 29.768 12.569 29.6336C12.5308 29.4992 12.5287 29.3571 12.5631 29.2217C12.5975 29.0863 12.667 28.9623 12.7647 28.8624C12.9613 28.6531 13.1697 28.4577 13.3745 28.2515L15.3911 26.2357C15.4695 26.1627 15.5323 26.0747 15.5759 25.9769C15.6194 25.8791 15.6428 25.7735 15.6447 25.6665C15.6465 25.5595 15.6268 25.4532 15.5866 25.3539C15.5465 25.2547 15.4867 25.1645 15.411 25.0889C15.3352 25.0132 15.2449 24.9536 15.1456 24.9136C15.0462 24.8735 14.9398 24.8539 14.8327 24.8558C14.7256 24.8578 14.62 24.8813 14.5222 24.9249C14.4244 24.9685 14.3364 25.0314 14.2634 25.1097C14.2041 25.1665 14.1478 25.2237 14.0901 25.2814C12.7315 26.6363 11.373 27.9939 10.0145 29.3542C9.94414 29.4359 9.85794 29.5026 9.7611 29.5501C9.66425 29.5977 9.55878 29.6251 9.45104 29.6308C9.34329 29.6364 9.23552 29.6202 9.13421 29.5831C9.03291 29.546 8.94018 29.4888 8.86162 29.4149C8.78306 29.341 8.7203 29.2519 8.67713 29.1531C8.63396 29.0543 8.61128 28.9478 8.61044 28.84C8.60961 28.7322 8.63064 28.6253 8.67228 28.5258C8.71392 28.4264 8.77529 28.3364 8.8527 28.2612C9.52645 27.5807 10.2054 26.908 10.8833 26.2316C11.2636 25.8535 11.6439 25.4732 12.0239 25.0907C12.1068 25.0188 12.174 24.9306 12.2213 24.8316C12.2686 24.7326 12.295 24.625 12.2988 24.5154C12.3026 24.4058 12.2838 24.2965 12.2435 24.1945C12.2033 24.0925 12.1424 23.9998 12.0647 23.9223C11.987 23.8448 11.8942 23.7842 11.792 23.7441C11.6898 23.704 11.5805 23.6854 11.4708 23.6895C11.3611 23.6935 11.2535 23.7201 11.1545 23.7675C11.0555 23.815 10.9674 23.8823 10.8956 23.9652C9.50479 25.3517 8.11565 26.7394 6.72824 28.1282C6.62794 28.2453 6.49609 28.3311 6.34838 28.3754C6.20067 28.4198 6.04333 28.4208 5.89508 28.3783C5.76625 28.3433 5.64838 28.2763 5.55246 28.1835C5.45654 28.0907 5.38568 27.9752 5.34649 27.8476C5.3073 27.7201 5.30105 27.5847 5.32832 27.4541C5.3556 27.3236 5.41551 27.202 5.50248 27.1008C5.55407 27.0394 5.61494 26.9843 5.67273 26.927C8.57067 24.0324 11.4691 21.1385 14.3681 18.2453C14.4938 18.1406 14.5851 18.0005 14.6302 17.8434C14.6754 17.6862 14.6723 17.5191 14.6214 17.3637C14.5817 17.2415 14.5127 17.1307 14.4205 17.0411C14.3283 16.9514 14.2156 16.8856 14.0922 16.8492C13.9688 16.8129 13.8384 16.8071 13.7123 16.8324C13.5861 16.8578 13.4681 16.9134 13.3683 16.9946C13.2961 17.0539 13.2316 17.1225 13.1651 17.189C9.83169 20.5163 6.49988 23.8439 3.16961 27.1719C3.06579 27.2984 2.92668 27.3912 2.76996 27.4384C2.61325 27.4857 2.446 27.4854 2.28949 27.4374C2.16651 27.3999 2.05454 27.3329 1.9633 27.2423C1.87205 27.1518 1.80429 27.0403 1.76587 26.9177C1.72745 26.7951 1.71954 26.6649 1.74282 26.5385C1.7661 26.4121 1.81987 26.2933 1.89948 26.1924C1.95564 26.1251 2.01595 26.0614 2.08004 26.0016C4.44215 23.6415 6.80511 21.2822 9.16894 18.9238C9.28775 18.826 9.37664 18.6968 9.42544 18.5509C9.47425 18.4051 9.48101 18.2484 9.44494 18.0989C9.41334 17.9677 9.34871 17.8468 9.25719 17.7475C9.16567 17.6483 9.0503 17.5741 8.92203 17.532C8.79375 17.4898 8.65683 17.4811 8.52425 17.5067C8.39167 17.5323 8.26783 17.5914 8.16449 17.6782C8.10776 17.7268 8.05369 17.7785 8.0025 17.8329L3.67518 22.1557C3.58273 22.2624 3.46394 22.343 3.33062 22.3896C3.19731 22.4362 3.05411 22.4471 2.91527 22.4212C2.77452 22.3955 2.64333 22.3323 2.53554 22.2382C2.42774 22.1442 2.34734 22.0229 2.30281 21.887C2.25827 21.7511 2.25126 21.6057 2.28252 21.4662C2.31377 21.3267 2.38212 21.1981 2.48037 21.0942C2.60161 20.9601 2.73471 20.8364 2.86317 20.7075C3.73056 19.8445 4.59726 18.9781 5.46327 18.1082C5.54101 18.0342 5.60301 17.9453 5.64556 17.8468C5.68811 17.7483 5.71033 17.6422 5.7109 17.5349C5.71147 17.4276 5.69037 17.3213 5.64887 17.2224C5.60737 17.1234 5.54631 17.0339 5.46936 16.959C5.39241 16.8842 5.30115 16.8257 5.20103 16.787C5.10091 16.7482 4.994 16.7301 4.8867 16.7336C4.7794 16.7371 4.6739 16.7622 4.57654 16.8074C4.47917 16.8526 4.39194 16.917 4.32005 16.9967C3.35292 17.969 2.38459 18.9378 1.41505 19.9033C1.32394 20.0072 1.20761 20.086 1.07724 20.132C0.946875 20.1781 0.806849 20.1898 0.670617 20.1662C0.529509 20.1482 0.396415 20.0906 0.28682 19.9999C0.177226 19.9093 0.0956359 19.7894 0.0515447 19.6543C-0.000376634 19.5193 -0.0133978 19.3725 0.0139592 19.2306C0.0413162 19.0886 0.107956 18.9571 0.206313 18.8511C0.242941 18.8083 0.287308 18.7701 0.324453 18.7304L17.6244 1.45618C18.2091 0.841339 18.9749 0.429008 19.8103 0.279195C20.4305 0.161009 21.0702 0.194507 21.6746 0.376831C22.2791 0.559155 22.8305 0.884895 23.2817 1.32626C23.3741 1.4072 23.4597 1.50258 23.5474 1.59176C23.5575 1.607 23.566 1.62324 23.5727 1.64023C23.2838 1.55378 22.9892 1.48763 22.691 1.44226C21.9333 1.32365 21.1581 1.38813 20.4303 1.6303C19.7026 1.87247 19.0435 2.28529 18.5082 2.83422C16.2542 5.06961 14.0127 7.31943 11.7654 9.56565L5.93583 15.3856C5.89611 15.4253 5.85484 15.4665 5.81666 15.5052C5.79261 15.5268 5.77321 15.553 5.75964 15.5823C5.74608 15.6116 5.73863 15.6434 5.73776 15.6757C5.73688 15.7079 5.7426 15.7401 5.75456 15.7701C5.76652 15.8001 5.78448 15.8273 5.80733 15.8501C5.83018 15.873 5.85744 15.8909 5.88746 15.9029C5.91748 15.9148 5.94962 15.9205 5.98192 15.9197C6.01423 15.9188 6.04601 15.9114 6.07534 15.8978C6.10467 15.8842 6.13092 15.8649 6.15251 15.8408C6.19378 15.8027 6.2335 15.7599 6.27219 15.7217C10.4138 11.5857 14.554 7.45055 18.6929 3.31625C19.2047 2.78581 19.8313 2.37959 20.5246 2.12873C21.218 1.87788 21.9596 1.78908 22.6926 1.86913C23.4933 1.92101 24.2466 2.26674 24.8077 2.83989C27.4842 5.5293 30.1682 8.21149 32.8598 10.8865C32.9078 10.9339 32.9511 10.9844 33.0223 11.0545Z" fill="#01AA00"/>
<path d="M25.3846 11.4661C25.3834 12.5507 25.0604 13.6106 24.4565 14.5115C23.8526 15.4125 22.995 16.114 21.9922 16.5272C20.9894 16.9405 19.8865 17.0469 18.8232 16.8331C17.7599 16.6192 16.7839 16.0947 16.0189 15.3259C15.2538 14.5571 14.7341 13.5785 14.5255 12.5142C14.3168 11.4498 14.4287 10.3475 14.8468 9.34676C15.265 8.34601 15.9707 7.49183 16.8746 6.89236C17.7785 6.29289 18.8399 5.97508 19.9245 5.97916C21.3756 5.98463 22.7653 6.56533 23.7888 7.59392C24.8124 8.62251 25.3863 10.015 25.3846 11.4661Z" fill="#FDFDFD"/>
<path d="M20.1752 15.7869C19.2622 15.7835 18.3707 15.5094 17.6135 14.9992C16.8563 14.4891 16.2674 13.7658 15.9213 12.9209C15.5752 12.076 15.4875 11.1475 15.6693 10.2527C15.8511 9.35797 16.2941 8.53723 16.9424 7.89433C17.5907 7.25144 18.4151 6.81527 19.3114 6.641C20.2076 6.46674 21.1354 6.56221 21.9774 6.91534C22.8194 7.26847 23.5377 7.86339 24.0415 8.62485C24.5453 9.3863 24.8119 10.2801 24.8076 11.1931C24.8019 12.4164 24.3108 13.5874 23.4422 14.4487C22.5735 15.3101 21.3985 15.7914 20.1752 15.7869Z" fill="#01AA00"/>
<path d="M24.8077 11.1716C24.8077 12.0858 24.5361 12.9794 24.0276 13.7391C23.519 14.4988 22.7963 15.0903 21.951 15.4387C21.1058 15.7871 20.1762 15.8766 19.28 15.6959C18.3839 15.5152 17.5616 15.0724 16.9174 14.4237C16.2732 13.775 15.8362 12.9497 15.6617 12.0523C15.4873 11.1549 15.5833 10.2259 15.9375 9.3831C16.2917 8.54033 16.8883 7.82174 17.6515 7.31847C18.4147 6.8152 19.3102 6.54992 20.2243 6.55626C21.4428 6.56472 22.6086 7.05472 23.4672 7.91936C24.3258 8.78399 24.8077 9.9531 24.8077 11.1716Z" fill="#FDFDFD"/>
<path d="M21.0747 12.9541C20.7203 12.6031 20.3733 12.2632 20.0323 11.9169C20.0213 11.9018 20.0072 11.8891 19.9911 11.8797C19.9749 11.8702 19.957 11.8642 19.9384 11.862C19.9198 11.8598 19.9009 11.8615 19.883 11.8669C19.8651 11.8723 19.8485 11.8813 19.8342 11.8934C19.5704 12.0589 19.2775 12.1728 18.9711 12.229C18.6895 12.2723 18.4013 12.2264 18.1471 12.0977C17.8929 11.9691 17.6855 11.7642 17.554 11.5119C17.3953 11.2806 17.3096 11.0072 17.3078 10.7269C17.306 10.4466 17.3881 10.1721 17.5438 9.93875C17.6054 9.83455 17.7531 9.75279 17.7301 9.64111C17.7098 9.54546 17.5839 9.46691 17.4956 9.38943C17.4073 9.31194 17.434 9.27721 17.5015 9.20988C17.7483 8.9582 17.7537 8.95072 17.9941 9.20507C18.0899 9.3066 18.1472 9.28896 18.2462 9.21683C18.5214 8.98373 18.872 8.85838 19.2329 8.86408C19.5938 8.86978 19.9403 9.00616 20.2079 9.24782C20.292 9.31729 20.3053 9.35843 20.2197 9.43645C20.0591 9.58554 19.8984 9.74103 19.7528 9.90348C19.6629 10.0034 19.5981 10.0312 19.4899 9.92432C19.387 9.82481 19.2564 9.75853 19.1152 9.73409C19.0198 9.71266 18.9199 9.72357 18.8314 9.76508C18.7131 9.82386 18.6633 9.8773 18.7896 9.99806C19.0611 10.2497 19.3208 10.5121 19.5751 10.7804C19.5899 10.8007 19.6087 10.8179 19.6303 10.8308C19.6519 10.8438 19.6759 10.8523 19.7009 10.8558C19.7258 10.8593 19.7513 10.8579 19.7756 10.8514C19.8 10.845 19.8228 10.8337 19.8428 10.8183C20.0946 10.6854 20.3592 10.578 20.6325 10.4977C20.8001 10.4483 20.9761 10.4339 21.1496 10.4554C21.323 10.4769 21.4902 10.5339 21.6406 10.6227C21.8488 10.7343 22.0296 10.8906 22.1697 11.0805C22.3099 11.2703 22.4061 11.4889 22.4512 11.7204C22.4963 11.9519 22.4892 12.1905 22.4305 12.419C22.3718 12.6474 22.2629 12.86 22.1118 13.0412C22.0154 13.1679 22.0127 13.2347 22.1337 13.333C22.2547 13.4313 22.343 13.5467 22.4549 13.6456C22.5213 13.7049 22.5085 13.738 22.4549 13.7974C22.1985 14.0725 22.2028 14.0747 21.9324 13.8064C21.662 13.5382 21.6701 13.5457 21.3611 13.7477C21.0658 13.9802 20.6909 14.088 20.3168 14.048C19.9428 14.0081 19.5992 13.8235 19.3598 13.5339C19.2908 13.4644 19.2758 13.4238 19.3556 13.3517C19.5344 13.1839 19.7084 13.0081 19.8781 12.8291C19.9461 12.757 19.9948 12.7543 20.0687 12.8189C20.1744 12.915 20.2962 12.9918 20.4285 13.046C20.5346 13.0897 20.6505 13.1043 20.7642 13.0881C20.8778 13.0719 20.985 13.0257 21.0747 12.9541Z" fill="#01AA00"/>
<path d="M20.7693 11.3202C20.8926 11.2237 21.0427 11.1715 21.1971 11.1715C21.3515 11.1715 21.5016 11.2237 21.6249 11.3202C21.7501 11.4116 21.8431 11.543 21.8898 11.6944C21.9364 11.8458 21.9341 12.0089 21.8832 12.1588C21.7992 12.367 21.7816 12.372 21.6313 12.2182L20.7693 11.3202Z" fill="#FDFDFD"/>
<path d="M19.6154 11.0122C19.4793 11.1257 19.3074 11.182 19.1335 11.17C18.9597 11.158 18.7964 11.0785 18.6758 10.9474C18.5659 10.8436 18.4933 10.7039 18.4698 10.5512C18.4463 10.3986 18.4734 10.2422 18.5467 10.1078C18.584 10.0392 18.6101 9.96999 18.6983 10.062C19.0005 10.3802 19.3073 10.6934 19.6154 11.0122Z" fill="#FDFDFD"/>
</g>
<path d="M134.115 7.13574H132.65V6.29199H134.115C134.355 6.29199 134.549 6.25293 134.697 6.1748C134.848 6.09408 134.959 5.9847 135.029 5.84668C135.099 5.70605 135.135 5.5459 135.135 5.36621C135.135 5.19173 135.099 5.02897 135.029 4.87793C134.959 4.72689 134.848 4.60449 134.697 4.51074C134.549 4.41699 134.355 4.37012 134.115 4.37012H133.002V9.20996H131.928V3.52246H134.115C134.558 3.52246 134.935 3.60189 135.248 3.76074C135.563 3.91699 135.803 4.13444 135.967 4.41309C136.133 4.68913 136.217 5.00423 136.217 5.3584C136.217 5.72559 136.133 6.04199 135.967 6.30762C135.803 6.57324 135.563 6.77767 135.248 6.9209C134.935 7.06413 134.558 7.13574 134.115 7.13574ZM137.06 3.52246H139.127C139.559 3.52246 139.93 3.58757 140.24 3.71777C140.55 3.84798 140.788 4.04069 140.955 4.2959C141.122 4.55111 141.205 4.86491 141.205 5.2373C141.205 5.53158 141.153 5.78678 141.049 6.00293C140.945 6.21908 140.797 6.40007 140.607 6.5459C140.42 6.69173 140.198 6.80632 139.943 6.88965L139.607 7.06152H137.783L137.775 6.21387H139.139C139.36 6.21387 139.543 6.1748 139.689 6.09668C139.835 6.01855 139.945 5.91048 140.017 5.77246C140.093 5.63444 140.131 5.47689 140.131 5.2998C140.131 5.1097 140.094 4.94564 140.021 4.80762C139.948 4.66699 139.838 4.55892 139.689 4.4834C139.541 4.40788 139.353 4.37012 139.127 4.37012H138.135V9.20996H137.06V3.52246ZM140.271 9.20996L138.955 6.66309L140.092 6.65918L141.424 9.15527V9.20996H140.271ZM146.752 6.22168V6.51465C146.752 6.94434 146.695 7.33105 146.58 7.6748C146.465 8.01595 146.303 8.30632 146.092 8.5459C145.881 8.78548 145.629 8.96908 145.338 9.09668C145.046 9.22428 144.722 9.28809 144.365 9.28809C144.014 9.28809 143.691 9.22428 143.396 9.09668C143.105 8.96908 142.852 8.78548 142.639 8.5459C142.425 8.30632 142.26 8.01595 142.142 7.6748C142.025 7.33105 141.967 6.94434 141.967 6.51465V6.22168C141.967 5.78939 142.025 5.40267 142.142 5.06152C142.26 4.72038 142.424 4.43001 142.635 4.19043C142.846 3.94824 143.097 3.76335 143.389 3.63574C143.683 3.50814 144.006 3.44434 144.357 3.44434C144.714 3.44434 145.038 3.50814 145.33 3.63574C145.622 3.76335 145.873 3.94824 146.084 4.19043C146.297 4.43001 146.461 4.72038 146.576 5.06152C146.693 5.40267 146.752 5.78939 146.752 6.22168ZM145.666 6.51465V6.21387C145.666 5.90397 145.637 5.63184 145.58 5.39746C145.523 5.16048 145.438 4.96126 145.326 4.7998C145.214 4.63835 145.076 4.51725 144.912 4.43652C144.748 4.35319 144.563 4.31152 144.357 4.31152C144.149 4.31152 143.964 4.35319 143.803 4.43652C143.644 4.51725 143.508 4.63835 143.396 4.7998C143.284 4.96126 143.198 5.16048 143.139 5.39746C143.081 5.63184 143.053 5.90397 143.053 6.21387V6.51465C143.053 6.82194 143.081 7.09408 143.139 7.33105C143.198 7.56803 143.284 7.76855 143.396 7.93262C143.511 8.09408 143.649 8.21647 143.81 8.2998C143.972 8.38314 144.157 8.4248 144.365 8.4248C144.573 8.4248 144.758 8.38314 144.92 8.2998C145.081 8.21647 145.217 8.09408 145.326 7.93262C145.438 7.76855 145.523 7.56803 145.58 7.33105C145.637 7.09408 145.666 6.82194 145.666 6.51465ZM149.877 3.52246V9.20996H148.807V3.52246H149.877ZM151.642 3.52246V4.37012H147.06V3.52246H151.642ZM156.127 8.36621V9.20996H153.103V8.36621H156.127ZM153.432 3.52246V9.20996H152.357V3.52246H153.432ZM155.732 5.87012V6.69434H153.103V5.87012H155.732ZM156.115 3.52246V4.37012H153.103V3.52246H156.115ZM161.31 6.26855V8.4834C161.227 8.59017 161.096 8.70605 160.916 8.83105C160.739 8.95605 160.507 9.06413 160.221 9.15527C159.934 9.24382 159.583 9.28809 159.166 9.28809C158.804 9.28809 158.473 9.22819 158.174 9.1084C157.874 8.986 157.616 8.80762 157.4 8.57324C157.184 8.33887 157.017 8.05241 156.9 7.71387C156.783 7.37533 156.724 6.98861 156.724 6.55371V6.17871C156.724 5.74382 156.779 5.3571 156.889 5.01855C157.001 4.68001 157.159 4.39355 157.365 4.15918C157.573 3.9248 157.822 3.74642 158.111 3.62402C158.403 3.50163 158.728 3.44043 159.088 3.44043C159.57 3.44043 159.965 3.51986 160.275 3.67871C160.588 3.83757 160.827 4.05632 160.994 4.33496C161.161 4.611 161.265 4.92871 161.307 5.28809H160.26C160.231 5.09017 160.174 4.91699 160.088 4.76855C160.002 4.61751 159.879 4.50033 159.721 4.41699C159.564 4.33105 159.361 4.28809 159.111 4.28809C158.9 4.28809 158.714 4.32975 158.553 4.41309C158.391 4.49642 158.256 4.61751 158.146 4.77637C158.037 4.93522 157.954 5.13184 157.896 5.36621C157.842 5.60059 157.814 5.86882 157.814 6.1709V6.55371C157.814 6.8584 157.846 7.12923 157.908 7.36621C157.971 7.60059 158.06 7.7985 158.178 7.95996C158.297 8.11882 158.445 8.23991 158.619 8.32324C158.796 8.40397 158.997 8.44434 159.221 8.44434C159.424 8.44434 159.592 8.42741 159.724 8.39355C159.86 8.3571 159.968 8.31413 160.049 8.26465C160.129 8.21517 160.192 8.16699 160.236 8.12012V7.05371H159.107V6.26855H161.31ZM163.471 3.52246V9.20996H162.396V3.52246H163.471ZM166.33 9.20996H165.103L165.111 8.36621H166.33C166.661 8.36621 166.938 8.29329 167.162 8.14746C167.386 7.99902 167.555 7.78678 167.67 7.51074C167.784 7.2321 167.842 6.89876 167.842 6.51074V6.21777C167.842 5.91829 167.809 5.65397 167.744 5.4248C167.679 5.19564 167.583 5.00293 167.455 4.84668C167.33 4.69043 167.175 4.57194 166.99 4.49121C166.805 4.41048 166.593 4.37012 166.353 4.37012H165.08V3.52246H166.353C166.734 3.52246 167.08 3.58626 167.392 3.71387C167.708 3.84147 167.98 4.02507 168.209 4.26465C168.441 4.50163 168.618 4.78548 168.74 5.11621C168.865 5.44694 168.928 5.81673 168.928 6.22559V6.51074C168.928 6.91699 168.865 7.28678 168.74 7.62012C168.618 7.95085 168.441 8.2347 168.209 8.47168C167.98 8.70866 167.706 8.89095 167.389 9.01855C167.071 9.14616 166.718 9.20996 166.33 9.20996ZM165.705 3.52246V9.20996H164.631V3.52246H165.705ZM174.447 6.22168V6.51465C174.447 6.94434 174.39 7.33105 174.275 7.6748C174.161 8.01595 173.998 8.30632 173.787 8.5459C173.576 8.78548 173.325 8.96908 173.033 9.09668C172.741 9.22428 172.417 9.28809 172.06 9.28809C171.709 9.28809 171.386 9.22428 171.092 9.09668C170.8 8.96908 170.547 8.78548 170.334 8.5459C170.12 8.30632 169.955 8.01595 169.838 7.6748C169.721 7.33105 169.662 6.94434 169.662 6.51465V6.22168C169.662 5.78939 169.721 5.40267 169.838 5.06152C169.955 4.72038 170.119 4.43001 170.33 4.19043C170.541 3.94824 170.792 3.76335 171.084 3.63574C171.378 3.50814 171.701 3.44434 172.053 3.44434C172.409 3.44434 172.734 3.50814 173.025 3.63574C173.317 3.76335 173.568 3.94824 173.779 4.19043C173.993 4.43001 174.157 4.72038 174.271 5.06152C174.389 5.40267 174.447 5.78939 174.447 6.22168ZM173.361 6.51465V6.21387C173.361 5.90397 173.333 5.63184 173.275 5.39746C173.218 5.16048 173.133 4.96126 173.021 4.7998C172.909 4.63835 172.771 4.51725 172.607 4.43652C172.443 4.35319 172.258 4.31152 172.053 4.31152C171.844 4.31152 171.659 4.35319 171.498 4.43652C171.339 4.51725 171.204 4.63835 171.092 4.7998C170.98 4.96126 170.894 5.16048 170.834 5.39746C170.777 5.63184 170.748 5.90397 170.748 6.21387V6.51465C170.748 6.82194 170.777 7.09408 170.834 7.33105C170.894 7.56803 170.98 7.76855 171.092 7.93262C171.206 8.09408 171.344 8.21647 171.506 8.2998C171.667 8.38314 171.852 8.4248 172.06 8.4248C172.269 8.4248 172.454 8.38314 172.615 8.2998C172.777 8.21647 172.912 8.09408 173.021 7.93262C173.133 7.76855 173.218 7.56803 173.275 7.33105C173.333 7.09408 173.361 6.82194 173.361 6.51465ZM179.537 7.13574H178.072V6.29199H179.537C179.777 6.29199 179.971 6.25293 180.119 6.1748C180.27 6.09408 180.381 5.9847 180.451 5.84668C180.521 5.70605 180.557 5.5459 180.557 5.36621C180.557 5.19173 180.521 5.02897 180.451 4.87793C180.381 4.72689 180.27 4.60449 180.119 4.51074C179.971 4.41699 179.777 4.37012 179.537 4.37012H178.424V9.20996H177.349V3.52246H179.537C179.98 3.52246 180.357 3.60189 180.67 3.76074C180.985 3.91699 181.224 4.13444 181.389 4.41309C181.555 4.68913 181.639 5.00423 181.639 5.3584C181.639 5.72559 181.555 6.04199 181.389 6.30762C181.224 6.57324 180.985 6.77767 180.67 6.9209C180.357 7.06413 179.98 7.13574 179.537 7.13574ZM187.088 6.22168V6.51465C187.088 6.94434 187.03 7.33105 186.916 7.6748C186.801 8.01595 186.639 8.30632 186.428 8.5459C186.217 8.78548 185.965 8.96908 185.674 9.09668C185.382 9.22428 185.058 9.28809 184.701 9.28809C184.349 9.28809 184.027 9.22428 183.732 9.09668C183.441 8.96908 183.188 8.78548 182.974 8.5459C182.761 8.30632 182.596 8.01595 182.478 7.6748C182.361 7.33105 182.303 6.94434 182.303 6.51465V6.22168C182.303 5.78939 182.361 5.40267 182.478 5.06152C182.596 4.72038 182.76 4.43001 182.971 4.19043C183.182 3.94824 183.433 3.76335 183.724 3.63574C184.019 3.50814 184.342 3.44434 184.693 3.44434C185.05 3.44434 185.374 3.50814 185.666 3.63574C185.958 3.76335 186.209 3.94824 186.42 4.19043C186.633 4.43001 186.797 4.72038 186.912 5.06152C187.029 5.40267 187.088 5.78939 187.088 6.22168ZM186.002 6.51465V6.21387C186.002 5.90397 185.973 5.63184 185.916 5.39746C185.859 5.16048 185.774 4.96126 185.662 4.7998C185.55 4.63835 185.412 4.51725 185.248 4.43652C185.084 4.35319 184.899 4.31152 184.693 4.31152C184.485 4.31152 184.3 4.35319 184.139 4.43652C183.98 4.51725 183.844 4.63835 183.732 4.7998C183.62 4.96126 183.534 5.16048 183.474 5.39746C183.417 5.63184 183.389 5.90397 183.389 6.21387V6.51465C183.389 6.82194 183.417 7.09408 183.474 7.33105C183.534 7.56803 183.62 7.76855 183.732 7.93262C183.847 8.09408 183.985 8.21647 184.146 8.2998C184.308 8.38314 184.493 8.4248 184.701 8.4248C184.909 8.4248 185.094 8.38314 185.256 8.2998C185.417 8.21647 185.553 8.09408 185.662 7.93262C185.774 7.76855 185.859 7.56803 185.916 7.33105C185.973 7.09408 186.002 6.82194 186.002 6.51465ZM187.998 3.52246H190.064C190.497 3.52246 190.868 3.58757 191.178 3.71777C191.488 3.84798 191.726 4.04069 191.892 4.2959C192.059 4.55111 192.142 4.86491 192.142 5.2373C192.142 5.53158 192.09 5.78678 191.986 6.00293C191.882 6.21908 191.735 6.40007 191.545 6.5459C191.357 6.69173 191.136 6.80632 190.881 6.88965L190.545 7.06152H188.721L188.713 6.21387H190.076C190.297 6.21387 190.481 6.1748 190.627 6.09668C190.773 6.01855 190.882 5.91048 190.955 5.77246C191.03 5.63444 191.068 5.47689 191.068 5.2998C191.068 5.1097 191.032 4.94564 190.959 4.80762C190.886 4.66699 190.775 4.55892 190.627 4.4834C190.478 4.40788 190.291 4.37012 190.064 4.37012H189.072V9.20996H187.998V3.52246ZM191.209 9.20996L189.892 6.66309L191.029 6.65918L192.361 9.15527V9.20996H191.209Z" fill="#151515"/>
<path d="M134.703 16.7797L132.444 23H131.521L134.122 16.175H134.717L134.703 16.7797ZM136.597 23L134.333 16.7797L134.319 16.175H134.914L137.525 23H136.597ZM136.48 20.4734V21.2141H132.646V20.4734H136.48ZM139.344 16.175V23H138.439V16.175H139.344ZM142.203 19.2453V19.9859H139.147V19.2453H142.203ZM142.667 16.175V16.9156H139.147V16.175H142.667ZM144.716 16.175V23H143.811V16.175H144.716ZM150.5 22.2641V23H147.088V22.2641H150.5ZM147.266 16.175V23H146.361V16.175H147.266ZM152.507 16.175V23H151.602V16.175H152.507ZM156.763 16.7797L154.503 23H153.58L156.182 16.175H156.777L156.763 16.7797ZM158.657 23L156.392 16.7797L156.378 16.175H156.974L159.585 23H158.657ZM158.539 20.4734V21.2141H154.705V20.4734H158.539ZM163.016 20.3234H161.192V19.5875H163.016C163.369 19.5875 163.655 19.5312 163.874 19.4187C164.092 19.3062 164.252 19.15 164.352 18.95C164.455 18.75 164.507 18.5219 164.507 18.2656C164.507 18.0312 164.455 17.8109 164.352 17.6047C164.252 17.3984 164.092 17.2328 163.874 17.1078C163.655 16.9797 163.369 16.9156 163.016 16.9156H161.403V23H160.499V16.175H163.016C163.532 16.175 163.967 16.2641 164.324 16.4422C164.68 16.6203 164.95 16.8672 165.135 17.1828C165.319 17.4953 165.411 17.8531 165.411 18.2562C165.411 18.6937 165.319 19.0672 165.135 19.3766C164.95 19.6859 164.68 19.9219 164.324 20.0844C163.967 20.2437 163.532 20.3234 163.016 20.3234ZM168.435 16.7797L166.175 23H165.252L167.853 16.175H168.449L168.435 16.7797ZM170.328 23L168.064 16.7797L168.05 16.175H168.646L171.257 23H170.328ZM170.211 20.4734V21.2141H166.377V20.4734H170.211ZM172.044 16.175L173.816 19.6016L175.592 16.175H176.619L174.266 20.45V23H173.361V20.45L171.008 16.175H172.044ZM135.95 32.1969H136.635C136.635 32.6875 136.494 33.0562 136.213 33.3031C135.935 33.5469 135.557 33.6687 135.078 33.6687C134.747 33.6687 134.46 33.5922 134.216 33.4391C133.975 33.2859 133.788 33.0734 133.653 32.8016C133.522 32.5297 133.457 32.2141 133.457 31.8547V31.3156C133.457 30.9562 133.522 30.6406 133.653 30.3687C133.788 30.0969 133.975 29.8844 134.216 29.7312C134.46 29.5781 134.747 29.5016 135.078 29.5016C135.557 29.5016 135.936 29.6234 136.217 29.8672C136.499 30.1109 136.639 30.4781 136.639 30.9687H135.955C135.955 30.6594 135.88 30.4375 135.73 30.3031C135.583 30.1687 135.366 30.1016 135.078 30.1016C134.872 30.1016 134.699 30.1531 134.558 30.2562C134.417 30.3594 134.311 30.5031 134.239 30.6875C134.167 30.8687 134.132 31.0766 134.132 31.3109V31.8547C134.132 32.0922 134.167 32.3031 134.239 32.4875C134.311 32.6687 134.417 32.8109 134.558 32.9141C134.699 33.0172 134.872 33.0687 135.078 33.0687C135.366 33.0687 135.583 33.0016 135.73 32.8672C135.877 32.7328 135.95 32.5094 135.95 32.1969ZM132.355 31.5828C132.355 31.9984 132.427 32.3859 132.571 32.7453C132.714 33.1047 132.914 33.4187 133.171 33.6875C133.427 33.9562 133.724 34.1656 134.061 34.3156C134.399 34.4656 134.76 34.5406 135.144 34.5406C135.528 34.5406 135.888 34.4656 136.222 34.3156C136.56 34.1656 136.855 33.9562 137.108 33.6875C137.364 33.4187 137.564 33.1047 137.708 32.7453C137.852 32.3859 137.924 31.9984 137.924 31.5828C137.924 31.1641 137.852 30.7766 137.708 30.4203C137.564 30.0641 137.364 29.7531 137.108 29.4875C136.855 29.2187 136.56 29.0109 136.222 28.8641C135.888 28.7141 135.528 28.6391 135.144 28.6391C134.76 28.6391 134.399 28.7141 134.061 28.8641C133.724 29.0109 133.427 29.2187 133.171 29.4875C132.914 29.7531 132.714 30.0641 132.571 30.4203C132.427 30.7766 132.355 31.1641 132.355 31.5828ZM131.816 31.5828C131.816 31.0859 131.902 30.625 132.074 30.2C132.246 29.775 132.485 29.4047 132.791 29.0891C133.097 28.7703 133.45 28.5234 133.85 28.3484C134.253 28.1703 134.685 28.0812 135.144 28.0812C135.603 28.0812 136.033 28.1703 136.433 28.3484C136.836 28.5234 137.189 28.7703 137.492 29.0891C137.799 29.4047 138.038 29.775 138.21 30.2C138.382 30.625 138.467 31.0859 138.467 31.5828C138.467 32.0797 138.382 32.5406 138.21 32.9656C138.038 33.3906 137.799 33.7641 137.492 34.0859C137.189 34.4047 136.836 34.6531 136.433 34.8312C136.033 35.0094 135.603 35.0984 135.144 35.0984C134.685 35.0984 134.253 35.0094 133.85 34.8312C133.45 34.6531 133.097 34.4047 132.791 34.0859C132.485 33.7641 132.246 33.3906 132.074 32.9656C131.902 32.5406 131.816 32.0797 131.816 31.5828ZM146.352 34.2875V35H141.885V34.3766L144.121 31.8875C144.396 31.5812 144.608 31.3219 144.758 31.1094C144.911 30.8937 145.017 30.7016 145.077 30.5328C145.139 30.3609 145.171 30.1859 145.171 30.0078C145.171 29.7828 145.124 29.5797 145.03 29.3984C144.939 29.2141 144.805 29.0672 144.627 28.9578C144.449 28.8484 144.233 28.7937 143.98 28.7937C143.677 28.7937 143.424 28.8531 143.221 28.9719C143.021 29.0875 142.871 29.25 142.771 29.4594C142.671 29.6687 142.621 29.9094 142.621 30.1812H141.753C141.753 29.7969 141.838 29.4453 142.007 29.1266C142.175 28.8078 142.425 28.5547 142.757 28.3672C143.088 28.1766 143.496 28.0812 143.98 28.0812C144.411 28.0812 144.78 28.1578 145.086 28.3109C145.392 28.4609 145.627 28.6734 145.789 28.9484C145.955 29.2203 146.038 29.5391 146.038 29.9047C146.038 30.1047 146.003 30.3078 145.935 30.5141C145.869 30.7172 145.777 30.9203 145.658 31.1234C145.542 31.3266 145.407 31.5266 145.25 31.7234C145.097 31.9203 144.933 32.1141 144.758 32.3047L142.93 34.2875H146.352ZM151.564 31.0437V32.0844C151.564 32.6437 151.514 33.1156 151.414 33.5C151.314 33.8844 151.171 34.1937 150.983 34.4281C150.796 34.6625 150.569 34.8328 150.303 34.9391C150.041 35.0422 149.744 35.0938 149.413 35.0938C149.15 35.0938 148.908 35.0609 148.686 34.9953C148.464 34.9297 148.264 34.825 148.086 34.6812C147.911 34.5344 147.761 34.3437 147.636 34.1094C147.511 33.875 147.416 33.5906 147.35 33.2562C147.285 32.9219 147.252 32.5312 147.252 32.0844V31.0437C147.252 30.4844 147.302 30.0156 147.402 29.6375C147.505 29.2594 147.65 28.9562 147.838 28.7281C148.025 28.4969 148.25 28.3312 148.513 28.2312C148.778 28.1312 149.075 28.0812 149.403 28.0812C149.669 28.0812 149.913 28.1141 150.135 28.1797C150.36 28.2422 150.56 28.3437 150.735 28.4844C150.91 28.6219 151.058 28.8062 151.18 29.0375C151.305 29.2656 151.4 29.5453 151.466 29.8766C151.532 30.2078 151.564 30.5969 151.564 31.0437ZM150.692 32.225V30.8984C150.692 30.5922 150.674 30.3234 150.636 30.0922C150.602 29.8578 150.55 29.6578 150.482 29.4922C150.413 29.3266 150.325 29.1922 150.219 29.0891C150.116 28.9859 149.996 28.9109 149.858 28.8641C149.724 28.8141 149.572 28.7891 149.403 28.7891C149.197 28.7891 149.014 28.8281 148.855 28.9062C148.696 28.9812 148.561 29.1016 148.452 29.2672C148.346 29.4328 148.264 29.65 148.208 29.9187C148.152 30.1875 148.124 30.5141 148.124 30.8984V32.225C148.124 32.5312 148.141 32.8016 148.175 33.0359C148.213 33.2703 148.267 33.4734 148.339 33.6453C148.411 33.8141 148.499 33.9531 148.602 34.0625C148.705 34.1719 148.824 34.2531 148.958 34.3062C149.096 34.3562 149.247 34.3812 149.413 34.3812C149.625 34.3812 149.811 34.3406 149.971 34.2594C150.13 34.1781 150.263 34.0516 150.369 33.8797C150.478 33.7047 150.56 33.4812 150.613 33.2094C150.666 32.9344 150.692 32.6062 150.692 32.225ZM157.152 34.2875V35H152.685V34.3766L154.921 31.8875C155.196 31.5812 155.408 31.3219 155.558 31.1094C155.711 30.8937 155.817 30.7016 155.877 30.5328C155.939 30.3609 155.971 30.1859 155.971 30.0078C155.971 29.7828 155.924 29.5797 155.83 29.3984C155.739 29.2141 155.605 29.0672 155.427 28.9578C155.249 28.8484 155.033 28.7937 154.78 28.7937C154.477 28.7937 154.224 28.8531 154.021 28.9719C153.821 29.0875 153.671 29.25 153.571 29.4594C153.471 29.6687 153.421 29.9094 153.421 30.1812H152.553C152.553 29.7969 152.638 29.4453 152.807 29.1266C152.975 28.8078 153.225 28.5547 153.557 28.3672C153.888 28.1766 154.296 28.0812 154.78 28.0812C155.211 28.0812 155.58 28.1578 155.886 28.3109C156.192 28.4609 156.427 28.6734 156.589 28.9484C156.755 29.2203 156.838 29.5391 156.838 29.9047C156.838 30.1047 156.803 30.3078 156.735 30.5141C156.669 30.7172 156.577 30.9203 156.458 31.1234C156.342 31.3266 156.207 31.5266 156.05 31.7234C155.897 31.9203 155.733 32.1141 155.558 32.3047L153.73 34.2875H157.152ZM159.346 31.1609H159.964C160.267 31.1609 160.517 31.1109 160.714 31.0109C160.914 30.9078 161.063 30.7687 161.16 30.5937C161.26 30.4156 161.31 30.2156 161.31 29.9937C161.31 29.7312 161.266 29.5109 161.178 29.3328C161.091 29.1547 160.96 29.0203 160.785 28.9297C160.61 28.8391 160.388 28.7937 160.119 28.7937C159.875 28.7937 159.66 28.8422 159.472 28.9391C159.288 29.0328 159.142 29.1672 159.036 29.3422C158.933 29.5172 158.882 29.7234 158.882 29.9609H158.014C158.014 29.6141 158.102 29.2984 158.277 29.0141C158.452 28.7297 158.697 28.5031 159.013 28.3344C159.332 28.1656 159.7 28.0812 160.119 28.0812C160.532 28.0812 160.892 28.1547 161.202 28.3016C161.511 28.4453 161.752 28.6609 161.924 28.9484C162.096 29.2328 162.182 29.5875 162.182 30.0125C162.182 30.1844 162.141 30.3687 162.06 30.5656C161.982 30.7594 161.858 30.9406 161.689 31.1094C161.524 31.2781 161.308 31.4172 161.042 31.5266C160.777 31.6328 160.458 31.6859 160.086 31.6859H159.346V31.1609ZM159.346 31.8734V31.3531H160.086C160.521 31.3531 160.88 31.4047 161.164 31.5078C161.449 31.6109 161.672 31.7484 161.835 31.9203C162 32.0922 162.116 32.2812 162.182 32.4875C162.25 32.6906 162.285 32.8937 162.285 33.0969C162.285 33.4156 162.23 33.6984 162.121 33.9453C162.014 34.1922 161.863 34.4016 161.666 34.5734C161.472 34.7453 161.244 34.875 160.982 34.9625C160.719 35.05 160.433 35.0938 160.124 35.0938C159.827 35.0938 159.547 35.0516 159.285 34.9672C159.025 34.8828 158.796 34.7609 158.596 34.6016C158.396 34.4391 158.239 34.2406 158.127 34.0062C158.014 33.7687 157.958 33.4984 157.958 33.1953H158.825C158.825 33.4328 158.877 33.6406 158.98 33.8187C159.086 33.9969 159.236 34.1359 159.43 34.2359C159.627 34.3328 159.858 34.3812 160.124 34.3812C160.389 34.3812 160.617 34.3359 160.808 34.2453C161.002 34.1516 161.15 34.0109 161.253 33.8234C161.36 33.6359 161.413 33.4 161.413 33.1156C161.413 32.8312 161.353 32.5984 161.235 32.4172C161.116 32.2328 160.947 32.0969 160.728 32.0094C160.513 31.9187 160.258 31.8734 159.964 31.8734H159.346ZM167.76 31.7422V32.4547H165.472V31.7422H167.76ZM173.455 28.175V35H172.564V28.175H173.455ZM175.649 28.175V28.9156H170.375V28.175H175.649ZM175.832 32.5203V32.4125C175.832 32.0469 175.885 31.7078 175.991 31.3953C176.097 31.0797 176.25 30.8062 176.45 30.575C176.65 30.3406 176.892 30.1594 177.177 30.0312C177.461 29.9 177.78 29.8344 178.133 29.8344C178.489 29.8344 178.81 29.9 179.094 30.0312C179.382 30.1594 179.625 30.3406 179.825 30.575C180.028 30.8062 180.183 31.0797 180.289 31.3953C180.396 31.7078 180.449 32.0469 180.449 32.4125V32.5203C180.449 32.8859 180.396 33.225 180.289 33.5375C180.183 33.85 180.028 34.1234 179.825 34.3578C179.625 34.5891 179.383 34.7703 179.099 34.9016C178.817 35.0297 178.499 35.0938 178.142 35.0938C177.786 35.0938 177.466 35.0297 177.182 34.9016C176.897 34.7703 176.653 34.5891 176.45 34.3578C176.25 34.1234 176.097 33.85 175.991 33.5375C175.885 33.225 175.832 32.8859 175.832 32.5203ZM176.699 32.4125V32.5203C176.699 32.7734 176.728 33.0125 176.788 33.2375C176.847 33.4594 176.936 33.6562 177.055 33.8281C177.177 34 177.328 34.1359 177.51 34.2359C177.691 34.3328 177.902 34.3812 178.142 34.3812C178.38 34.3812 178.588 34.3328 178.766 34.2359C178.947 34.1359 179.097 34 179.216 33.8281C179.335 33.6562 179.424 33.4594 179.483 33.2375C179.546 33.0125 179.577 32.7734 179.577 32.5203V32.4125C179.577 32.1625 179.546 31.9266 179.483 31.7047C179.424 31.4797 179.333 31.2812 179.211 31.1094C179.092 30.9344 178.942 30.7969 178.761 30.6969C178.583 30.5969 178.374 30.5469 178.133 30.5469C177.896 30.5469 177.686 30.5969 177.505 30.6969C177.327 30.7969 177.177 30.9344 177.055 31.1094C176.936 31.2812 176.847 31.4797 176.788 31.7047C176.728 31.9266 176.699 32.1625 176.699 32.4125ZM184.733 34.0156V27.8H185.605V35H184.808L184.733 34.0156ZM181.321 32.5203V32.4219C181.321 32.0344 181.367 31.6828 181.461 31.3672C181.558 31.0484 181.694 30.775 181.869 30.5469C182.047 30.3187 182.258 30.1437 182.502 30.0219C182.749 29.8969 183.024 29.8344 183.327 29.8344C183.646 29.8344 183.924 29.8906 184.161 30.0031C184.402 30.1125 184.605 30.2734 184.771 30.4859C184.939 30.6953 185.072 30.9484 185.169 31.2453C185.266 31.5422 185.333 31.8781 185.371 32.2531V32.6844C185.336 33.0562 185.269 33.3906 185.169 33.6875C185.072 33.9844 184.939 34.2375 184.771 34.4469C184.605 34.6562 184.402 34.8172 184.161 34.9297C183.921 35.0391 183.639 35.0938 183.317 35.0938C183.021 35.0938 182.749 35.0297 182.502 34.9016C182.258 34.7734 182.047 34.5937 181.869 34.3625C181.694 34.1312 181.558 33.8594 181.461 33.5469C181.367 33.2312 181.321 32.8891 181.321 32.5203ZM182.192 32.4219V32.5203C182.192 32.7734 182.217 33.0109 182.267 33.2328C182.321 33.4547 182.402 33.65 182.511 33.8187C182.621 33.9875 182.76 34.1203 182.928 34.2172C183.097 34.3109 183.299 34.3578 183.533 34.3578C183.821 34.3578 184.057 34.2969 184.241 34.175C184.428 34.0531 184.578 33.8922 184.691 33.6922C184.803 33.4922 184.891 33.275 184.953 33.0406V31.9109C184.916 31.7391 184.861 31.5734 184.789 31.4141C184.721 31.2516 184.63 31.1078 184.517 30.9828C184.408 30.8547 184.272 30.7531 184.11 30.6781C183.95 30.6031 183.761 30.5656 183.542 30.5656C183.305 30.5656 183.1 30.6156 182.928 30.7156C182.76 30.8125 182.621 30.9469 182.511 31.1187C182.402 31.2875 182.321 31.4844 182.267 31.7094C182.217 31.9312 182.192 32.1687 182.192 32.4219ZM186.725 32.5203V32.4125C186.725 32.0469 186.778 31.7078 186.885 31.3953C186.991 31.0797 187.144 30.8062 187.344 30.575C187.544 30.3406 187.786 30.1594 188.071 30.0312C188.355 29.9 188.674 29.8344 189.027 29.8344C189.383 29.8344 189.703 29.9 189.988 30.0312C190.275 30.1594 190.519 30.3406 190.719 30.575C190.922 30.8062 191.077 31.0797 191.183 31.3953C191.289 31.7078 191.342 32.0469 191.342 32.4125V32.5203C191.342 32.8859 191.289 33.225 191.183 33.5375C191.077 33.85 190.922 34.1234 190.719 34.3578C190.519 34.5891 190.277 34.7703 189.992 34.9016C189.711 35.0297 189.392 35.0938 189.036 35.0938C188.68 35.0938 188.36 35.0297 188.075 34.9016C187.791 34.7703 187.547 34.5891 187.344 34.3578C187.144 34.1234 186.991 33.85 186.885 33.5375C186.778 33.225 186.725 32.8859 186.725 32.5203ZM187.592 32.4125V32.5203C187.592 32.7734 187.622 33.0125 187.682 33.2375C187.741 33.4594 187.83 33.6562 187.949 33.8281C188.071 34 188.222 34.1359 188.403 34.2359C188.585 34.3328 188.796 34.3812 189.036 34.3812C189.274 34.3812 189.482 34.3328 189.66 34.2359C189.841 34.1359 189.991 34 190.11 33.8281C190.228 33.6562 190.317 33.4594 190.377 33.2375C190.439 33.0125 190.471 32.7734 190.471 32.5203V32.4125C190.471 32.1625 190.439 31.9266 190.377 31.7047C190.317 31.4797 190.227 31.2812 190.105 31.1094C189.986 30.9344 189.836 30.7969 189.655 30.6969C189.477 30.5969 189.267 30.5469 189.027 30.5469C188.789 30.5469 188.58 30.5969 188.399 30.6969C188.221 30.7969 188.071 30.9344 187.949 31.1094C187.83 31.2812 187.741 31.4797 187.682 31.7047C187.622 31.9266 187.592 32.1625 187.592 32.4125ZM195.383 33.6547C195.383 33.5297 195.355 33.4141 195.299 33.3078C195.246 33.1984 195.135 33.1 194.966 33.0125C194.8 32.9219 194.55 32.8437 194.216 32.7781C193.935 32.7187 193.68 32.6484 193.452 32.5672C193.227 32.4859 193.035 32.3875 192.875 32.2719C192.719 32.1562 192.599 32.0203 192.514 31.8641C192.43 31.7078 192.388 31.525 192.388 31.3156C192.388 31.1156 192.432 30.9266 192.519 30.7484C192.61 30.5703 192.736 30.4125 192.899 30.275C193.064 30.1375 193.263 30.0297 193.494 29.9516C193.725 29.8734 193.983 29.8344 194.267 29.8344C194.674 29.8344 195.021 29.9062 195.308 30.05C195.596 30.1937 195.816 30.3859 195.969 30.6266C196.122 30.8641 196.199 31.1281 196.199 31.4187H195.332C195.332 31.2781 195.289 31.1422 195.205 31.0109C195.124 30.8766 195.003 30.7656 194.844 30.6781C194.688 30.5906 194.496 30.5469 194.267 30.5469C194.027 30.5469 193.832 30.5844 193.682 30.6594C193.535 30.7312 193.427 30.8234 193.358 30.9359C193.292 31.0484 193.26 31.1672 193.26 31.2922C193.26 31.3859 193.275 31.4703 193.307 31.5453C193.341 31.6172 193.4 31.6844 193.485 31.7469C193.569 31.8062 193.688 31.8625 193.841 31.9156C193.994 31.9687 194.189 32.0219 194.427 32.075C194.842 32.1687 195.185 32.2812 195.453 32.4125C195.722 32.5437 195.922 32.7047 196.053 32.8953C196.185 33.0859 196.25 33.3172 196.25 33.5891C196.25 33.8109 196.203 34.0141 196.11 34.1984C196.019 34.3828 195.886 34.5422 195.711 34.6766C195.539 34.8078 195.333 34.9109 195.092 34.9859C194.855 35.0578 194.588 35.0938 194.291 35.0938C193.844 35.0938 193.466 35.0141 193.157 34.8547C192.847 34.6953 192.613 34.4891 192.453 34.2359C192.294 33.9828 192.214 33.7156 192.214 33.4344H193.086C193.099 33.6719 193.167 33.8609 193.292 34.0016C193.417 34.1391 193.571 34.2375 193.752 34.2969C193.933 34.3531 194.113 34.3812 194.291 34.3812C194.528 34.3812 194.727 34.35 194.886 34.2875C195.049 34.225 195.172 34.1391 195.257 34.0297C195.341 33.9203 195.383 33.7953 195.383 33.6547ZM199.541 32.5203V32.4125C199.541 32.0469 199.594 31.7078 199.7 31.3953C199.807 31.0797 199.96 30.8062 200.16 30.575C200.36 30.3406 200.602 30.1594 200.886 30.0312C201.171 29.9 201.489 29.8344 201.842 29.8344C202.199 29.8344 202.519 29.9 202.803 30.0312C203.091 30.1594 203.335 30.3406 203.535 30.575C203.738 30.8062 203.892 31.0797 203.999 31.3953C204.105 31.7078 204.158 32.0469 204.158 32.4125V32.5203C204.158 32.8859 204.105 33.225 203.999 33.5375C203.892 33.85 203.738 34.1234 203.535 34.3578C203.335 34.5891 203.092 34.7703 202.808 34.9016C202.527 35.0297 202.208 35.0938 201.852 35.0938C201.496 35.0938 201.175 35.0297 200.891 34.9016C200.607 34.7703 200.363 34.5891 200.16 34.3578C199.96 34.1234 199.807 33.85 199.7 33.5375C199.594 33.225 199.541 32.8859 199.541 32.5203ZM200.408 32.4125V32.5203C200.408 32.7734 200.438 33.0125 200.497 33.2375C200.557 33.4594 200.646 33.6562 200.764 33.8281C200.886 34 201.038 34.1359 201.219 34.2359C201.4 34.3328 201.611 34.3812 201.852 34.3812C202.089 34.3812 202.297 34.3328 202.475 34.2359C202.657 34.1359 202.807 34 202.925 33.8281C203.044 33.6562 203.133 33.4594 203.192 33.2375C203.255 33.0125 203.286 32.7734 203.286 32.5203V32.4125C203.286 32.1625 203.255 31.9266 203.192 31.7047C203.133 31.4797 203.042 31.2812 202.921 31.1094C202.802 30.9344 202.652 30.7969 202.471 30.6969C202.292 30.5969 202.083 30.5469 201.842 30.5469C201.605 30.5469 201.396 30.5969 201.214 30.6969C201.036 30.7969 200.886 30.9344 200.764 31.1094C200.646 31.2812 200.557 31.4797 200.497 31.7047C200.438 31.9266 200.408 32.1625 200.408 32.4125ZM208.199 33.6547C208.199 33.5297 208.171 33.4141 208.114 33.3078C208.061 33.1984 207.95 33.1 207.782 33.0125C207.616 32.9219 207.366 32.8437 207.032 32.7781C206.75 32.7187 206.496 32.6484 206.267 32.5672C206.042 32.4859 205.85 32.3875 205.691 32.2719C205.535 32.1562 205.414 32.0203 205.33 31.8641C205.246 31.7078 205.203 31.525 205.203 31.3156C205.203 31.1156 205.247 30.9266 205.335 30.7484C205.425 30.5703 205.552 30.4125 205.714 30.275C205.88 30.1375 206.078 30.0297 206.31 29.9516C206.541 29.8734 206.799 29.8344 207.083 29.8344C207.489 29.8344 207.836 29.9062 208.124 30.05C208.411 30.1937 208.632 30.3859 208.785 30.6266C208.938 30.8641 209.014 31.1281 209.014 31.4187H208.147C208.147 31.2781 208.105 31.1422 208.021 31.0109C207.939 30.8766 207.819 30.7656 207.66 30.6781C207.503 30.5906 207.311 30.5469 207.083 30.5469C206.842 30.5469 206.647 30.5844 206.497 30.6594C206.35 30.7312 206.242 30.8234 206.174 30.9359C206.108 31.0484 206.075 31.1672 206.075 31.2922C206.075 31.3859 206.091 31.4703 206.122 31.5453C206.157 31.6172 206.216 31.6844 206.3 31.7469C206.385 31.8062 206.503 31.8625 206.657 31.9156C206.81 31.9687 207.005 32.0219 207.242 32.075C207.658 32.1687 208 32.2812 208.269 32.4125C208.538 32.5437 208.738 32.7047 208.869 32.8953C209 33.0859 209.066 33.3172 209.066 33.5891C209.066 33.8109 209.019 34.0141 208.925 34.1984C208.835 34.3828 208.702 34.5422 208.527 34.6766C208.355 34.8078 208.149 34.9109 207.908 34.9859C207.671 35.0578 207.403 35.0938 207.107 35.0938C206.66 35.0938 206.282 35.0141 205.972 34.8547C205.663 34.6953 205.428 34.4891 205.269 34.2359C205.11 33.9828 205.03 33.7156 205.03 33.4344H205.902C205.914 33.6719 205.983 33.8609 206.108 34.0016C206.233 34.1391 206.386 34.2375 206.567 34.2969C206.749 34.3531 206.928 34.3812 207.107 34.3812C207.344 34.3812 207.542 34.35 207.702 34.2875C207.864 34.225 207.988 34.1391 208.072 34.0297C208.157 33.9203 208.199 33.7953 208.199 33.6547ZM215.783 34.0156V27.8H216.655V35H215.858L215.783 34.0156ZM212.371 32.5203V32.4219C212.371 32.0344 212.417 31.6828 212.511 31.3672C212.608 31.0484 212.744 30.775 212.919 30.5469C213.097 30.3187 213.308 30.1437 213.552 30.0219C213.799 29.8969 214.074 29.8344 214.377 29.8344C214.696 29.8344 214.974 29.8906 215.211 30.0031C215.452 30.1125 215.655 30.2734 215.821 30.4859C215.989 30.6953 216.122 30.9484 216.219 31.2453C216.316 31.5422 216.383 31.8781 216.421 32.2531V32.6844C216.386 33.0562 216.319 33.3906 216.219 33.6875C216.122 33.9844 215.989 34.2375 215.821 34.4469C215.655 34.6562 215.452 34.8172 215.211 34.9297C214.971 35.0391 214.689 35.0938 214.367 35.0938C214.071 35.0938 213.799 35.0297 213.552 34.9016C213.308 34.7734 213.097 34.5937 212.919 34.3625C212.744 34.1312 212.608 33.8594 212.511 33.5469C212.417 33.2312 212.371 32.8891 212.371 32.5203ZM213.242 32.4219V32.5203C213.242 32.7734 213.267 33.0109 213.317 33.2328C213.371 33.4547 213.452 33.65 213.561 33.8187C213.671 33.9875 213.81 34.1203 213.978 34.2172C214.147 34.3109 214.349 34.3578 214.583 34.3578C214.871 34.3578 215.107 34.2969 215.291 34.175C215.478 34.0531 215.628 33.8922 215.741 33.6922C215.853 33.4922 215.941 33.275 216.003 33.0406V31.9109C215.966 31.7391 215.911 31.5734 215.839 31.4141C215.771 31.2516 215.68 31.1078 215.567 30.9828C215.458 30.8547 215.322 30.7531 215.16 30.6781C215 30.6031 214.811 30.5656 214.592 30.5656C214.355 30.5656 214.15 30.6156 213.978 30.7156C213.81 30.8125 213.671 30.9469 213.561 31.1187C213.452 31.2875 213.371 31.4844 213.317 31.7094C213.267 31.9312 213.242 32.1687 213.242 32.4219ZM218.947 29.9281V35H218.075V29.9281H218.947ZM218.01 28.5828C218.01 28.4422 218.052 28.3234 218.136 28.2266C218.224 28.1297 218.352 28.0812 218.521 28.0812C218.686 28.0812 218.813 28.1297 218.9 28.2266C218.991 28.3234 219.036 28.4422 219.036 28.5828C219.036 28.7172 218.991 28.8328 218.9 28.9297C218.813 29.0234 218.686 29.0703 218.521 29.0703C218.352 29.0703 218.224 29.0234 218.136 28.9297C218.052 28.8328 218.01 28.7172 218.01 28.5828ZM221.207 30.725V35H220.339V29.9281H221.183L221.207 30.725ZM222.791 29.9L222.786 30.7062C222.714 30.6906 222.646 30.6812 222.58 30.6781C222.517 30.6719 222.446 30.6687 222.364 30.6687C222.164 30.6687 221.988 30.7 221.835 30.7625C221.682 30.825 221.552 30.9125 221.446 31.025C221.339 31.1375 221.255 31.2719 221.192 31.4281C221.133 31.5812 221.094 31.75 221.075 31.9344L220.832 32.075C220.832 31.7687 220.861 31.4812 220.921 31.2125C220.983 30.9437 221.078 30.7062 221.207 30.5C221.335 30.2906 221.497 30.1281 221.694 30.0125C221.894 29.8937 222.132 29.8344 222.407 29.8344C222.469 29.8344 222.541 29.8422 222.622 29.8578C222.703 29.8703 222.76 29.8844 222.791 29.9ZM225.603 35.0938C225.25 35.0938 224.93 35.0344 224.642 34.9156C224.358 34.7937 224.113 34.6234 223.907 34.4047C223.703 34.1859 223.547 33.9266 223.438 33.6266C223.328 33.3266 223.274 32.9984 223.274 32.6422V32.4453C223.274 32.0328 223.335 31.6656 223.457 31.3437C223.578 31.0187 223.744 30.7437 223.953 30.5187C224.163 30.2937 224.4 30.1234 224.666 30.0078C224.932 29.8922 225.207 29.8344 225.491 29.8344C225.853 29.8344 226.166 29.8969 226.428 30.0219C226.694 30.1469 226.911 30.3219 227.08 30.5469C227.249 30.7687 227.374 31.0312 227.455 31.3344C227.536 31.6344 227.577 31.9625 227.577 32.3187V32.7078H223.789V32H226.71V31.9344C226.697 31.7094 226.65 31.4906 226.569 31.2781C226.491 31.0656 226.366 30.8906 226.194 30.7531C226.022 30.6156 225.788 30.5469 225.491 30.5469C225.294 30.5469 225.113 30.5891 224.947 30.6734C224.782 30.7547 224.639 30.8766 224.521 31.0391C224.402 31.2016 224.31 31.4 224.244 31.6344C224.178 31.8687 224.146 32.1391 224.146 32.4453V32.6422C224.146 32.8828 224.178 33.1094 224.244 33.3219C224.313 33.5312 224.411 33.7156 224.539 33.875C224.671 34.0344 224.828 34.1594 225.013 34.25C225.2 34.3406 225.413 34.3859 225.65 34.3859C225.957 34.3859 226.216 34.3234 226.428 34.1984C226.641 34.0734 226.827 33.9062 226.986 33.6969L227.511 34.1141C227.402 34.2797 227.263 34.4375 227.094 34.5875C226.925 34.7375 226.717 34.8594 226.471 34.9531C226.227 35.0469 225.938 35.0938 225.603 35.0938ZM229.532 29.9281V35H228.66V29.9281H229.532ZM228.594 28.5828C228.594 28.4422 228.636 28.3234 228.721 28.2266C228.808 28.1297 228.936 28.0812 229.105 28.0812C229.271 28.0812 229.397 28.1297 229.485 28.2266C229.575 28.3234 229.621 28.4422 229.621 28.5828C229.621 28.7172 229.575 28.8328 229.485 28.9297C229.397 29.0234 229.271 29.0703 229.105 29.0703C228.936 29.0703 228.808 29.0234 228.721 28.9297C228.636 28.8328 228.594 28.7172 228.594 28.5828ZM233.047 29.9281V30.5937H230.305V29.9281H233.047ZM231.233 28.6953H232.1V33.7437C232.1 33.9156 232.127 34.0453 232.18 34.1328C232.233 34.2203 232.302 34.2781 232.386 34.3062C232.471 34.3344 232.561 34.3484 232.658 34.3484C232.73 34.3484 232.805 34.3422 232.883 34.3297C232.964 34.3141 233.025 34.3016 233.066 34.2922L233.071 35C233.002 35.0219 232.911 35.0422 232.799 35.0609C232.689 35.0828 232.557 35.0938 232.4 35.0938C232.188 35.0938 231.992 35.0516 231.814 34.9672C231.636 34.8828 231.494 34.7422 231.388 34.5453C231.285 34.3453 231.233 34.0766 231.233 33.7391V28.6953ZM233.741 32.5203V32.4125C233.741 32.0469 233.794 31.7078 233.9 31.3953C234.007 31.0797 234.16 30.8062 234.36 30.575C234.56 30.3406 234.802 30.1594 235.086 30.0312C235.371 29.9 235.689 29.8344 236.042 29.8344C236.399 29.8344 236.719 29.9 237.003 30.0312C237.291 30.1594 237.535 30.3406 237.735 30.575C237.938 30.8062 238.092 31.0797 238.199 31.3953C238.305 31.7078 238.358 32.0469 238.358 32.4125V32.5203C238.358 32.8859 238.305 33.225 238.199 33.5375C238.092 33.85 237.938 34.1234 237.735 34.3578C237.535 34.5891 237.292 34.7703 237.008 34.9016C236.727 35.0297 236.408 35.0938 236.052 35.0938C235.696 35.0938 235.375 35.0297 235.091 34.9016C234.807 34.7703 234.563 34.5891 234.36 34.3578C234.16 34.1234 234.007 33.85 233.9 33.5375C233.794 33.225 233.741 32.8859 233.741 32.5203ZM234.608 32.4125V32.5203C234.608 32.7734 234.638 33.0125 234.697 33.2375C234.757 33.4594 234.846 33.6562 234.964 33.8281C235.086 34 235.238 34.1359 235.419 34.2359C235.6 34.3328 235.811 34.3812 236.052 34.3812C236.289 34.3812 236.497 34.3328 236.675 34.2359C236.857 34.1359 237.007 34 237.125 33.8281C237.244 33.6562 237.333 33.4594 237.392 33.2375C237.455 33.0125 237.486 32.7734 237.486 32.5203V32.4125C237.486 32.1625 237.455 31.9266 237.392 31.7047C237.333 31.4797 237.242 31.2812 237.121 31.1094C237.002 30.9344 236.852 30.7969 236.671 30.6969C236.492 30.5969 236.283 30.5469 236.042 30.5469C235.805 30.5469 235.596 30.5969 235.414 30.6969C235.236 30.7969 235.086 30.9344 234.964 31.1094C234.846 31.2812 234.757 31.4797 234.697 31.7047C234.638 31.9266 234.608 32.1625 234.608 32.4125ZM242.399 33.6547C242.399 33.5297 242.371 33.4141 242.314 33.3078C242.261 33.1984 242.15 33.1 241.982 33.0125C241.816 32.9219 241.566 32.8437 241.232 32.7781C240.95 32.7187 240.696 32.6484 240.467 32.5672C240.242 32.4859 240.05 32.3875 239.891 32.2719C239.735 32.1562 239.614 32.0203 239.53 31.8641C239.446 31.7078 239.403 31.525 239.403 31.3156C239.403 31.1156 239.447 30.9266 239.535 30.7484C239.625 30.5703 239.752 30.4125 239.914 30.275C240.08 30.1375 240.278 30.0297 240.51 29.9516C240.741 29.8734 240.999 29.8344 241.283 29.8344C241.689 29.8344 242.036 29.9062 242.324 30.05C242.611 30.1937 242.832 30.3859 242.985 30.6266C243.138 30.8641 243.214 31.1281 243.214 31.4187H242.347C242.347 31.2781 242.305 31.1422 242.221 31.0109C242.139 30.8766 242.019 30.7656 241.86 30.6781C241.703 30.5906 241.511 30.5469 241.283 30.5469C241.042 30.5469 240.847 30.5844 240.697 30.6594C240.55 30.7312 240.442 30.8234 240.374 30.9359C240.308 31.0484 240.275 31.1672 240.275 31.2922C240.275 31.3859 240.291 31.4703 240.322 31.5453C240.357 31.6172 240.416 31.6844 240.5 31.7469C240.585 31.8062 240.703 31.8625 240.857 31.9156C241.01 31.9687 241.205 32.0219 241.442 32.075C241.858 32.1687 242.2 32.2812 242.469 32.4125C242.738 32.5437 242.938 32.7047 243.069 32.8953C243.2 33.0859 243.266 33.3172 243.266 33.5891C243.266 33.8109 243.219 34.0141 243.125 34.1984C243.035 34.3828 242.902 34.5422 242.727 34.6766C242.555 34.8078 242.349 34.9109 242.108 34.9859C241.871 35.0578 241.603 35.0938 241.307 35.0938C240.86 35.0938 240.482 35.0141 240.172 34.8547C239.863 34.6953 239.628 34.4891 239.469 34.2359C239.31 33.9828 239.23 33.7156 239.23 33.4344H240.102C240.114 33.6719 240.183 33.8609 240.308 34.0016C240.433 34.1391 240.586 34.2375 240.767 34.2969C240.949 34.3531 241.128 34.3812 241.307 34.3812C241.544 34.3812 241.742 34.35 241.902 34.2875C242.064 34.225 242.188 34.1391 242.272 34.0297C242.357 33.9203 242.399 33.7953 242.399 33.6547ZM247.653 30.725V35H246.786V29.9281H247.63L247.653 30.725ZM249.238 29.9L249.233 30.7062C249.161 30.6906 249.092 30.6812 249.027 30.6781C248.964 30.6719 248.892 30.6687 248.811 30.6687C248.611 30.6687 248.435 30.7 248.282 30.7625C248.128 30.825 247.999 30.9125 247.892 31.025C247.786 31.1375 247.702 31.2719 247.639 31.4281C247.58 31.5812 247.541 31.75 247.522 31.9344L247.278 32.075C247.278 31.7687 247.308 31.4812 247.367 31.2125C247.43 30.9437 247.525 30.7062 247.653 30.5C247.782 30.2906 247.944 30.1281 248.141 30.0125C248.341 29.8937 248.578 29.8344 248.853 29.8344C248.916 29.8344 248.988 29.8422 249.069 29.8578C249.15 29.8703 249.207 29.8844 249.238 29.9ZM252.05 35.0938C251.697 35.0938 251.377 35.0344 251.089 34.9156C250.805 34.7937 250.56 34.6234 250.353 34.4047C250.15 34.1859 249.994 33.9266 249.885 33.6266C249.775 33.3266 249.721 32.9984 249.721 32.6422V32.4453C249.721 32.0328 249.782 31.6656 249.903 31.3437C250.025 31.0187 250.191 30.7437 250.4 30.5187C250.61 30.2937 250.847 30.1234 251.113 30.0078C251.378 29.8922 251.653 29.8344 251.938 29.8344C252.3 29.8344 252.613 29.8969 252.875 30.0219C253.141 30.1469 253.358 30.3219 253.527 30.5469C253.696 30.7687 253.821 31.0312 253.902 31.3344C253.983 31.6344 254.024 31.9625 254.024 32.3187V32.7078H250.236V32H253.157V31.9344C253.144 31.7094 253.097 31.4906 253.016 31.2781C252.938 31.0656 252.813 30.8906 252.641 30.7531C252.469 30.6156 252.235 30.5469 251.938 30.5469C251.741 30.5469 251.56 30.5891 251.394 30.6734C251.228 30.7547 251.086 30.8766 250.967 31.0391C250.849 31.2016 250.757 31.4 250.691 31.6344C250.625 31.8687 250.592 32.1391 250.592 32.4453V32.6422C250.592 32.8828 250.625 33.1094 250.691 33.3219C250.76 33.5312 250.858 33.7156 250.986 33.875C251.117 34.0344 251.275 34.1594 251.46 34.25C251.647 34.3406 251.86 34.3859 252.097 34.3859C252.403 34.3859 252.663 34.3234 252.875 34.1984C253.088 34.0734 253.274 33.9062 253.433 33.6969L253.958 34.1141C253.849 34.2797 253.71 34.4375 253.541 34.5875C253.372 34.7375 253.164 34.8594 252.917 34.9531C252.674 35.0469 252.385 35.0938 252.05 35.0938ZM257.989 33.6547C257.989 33.5297 257.961 33.4141 257.905 33.3078C257.852 33.1984 257.741 33.1 257.572 33.0125C257.407 32.9219 257.157 32.8437 256.822 32.7781C256.541 32.7187 256.286 32.6484 256.058 32.5672C255.833 32.4859 255.641 32.3875 255.482 32.2719C255.325 32.1562 255.205 32.0203 255.121 31.8641C255.036 31.7078 254.994 31.525 254.994 31.3156C254.994 31.1156 255.038 30.9266 255.125 30.7484C255.216 30.5703 255.342 30.4125 255.505 30.275C255.671 30.1375 255.869 30.0297 256.1 29.9516C256.332 29.8734 256.589 29.8344 256.874 29.8344C257.28 29.8344 257.627 29.9062 257.914 30.05C258.202 30.1937 258.422 30.3859 258.575 30.6266C258.728 30.8641 258.805 31.1281 258.805 31.4187H257.938C257.938 31.2781 257.896 31.1422 257.811 31.0109C257.73 30.8766 257.61 30.7656 257.45 30.6781C257.294 30.5906 257.102 30.5469 256.874 30.5469C256.633 30.5469 256.438 30.5844 256.288 30.6594C256.141 30.7312 256.033 30.8234 255.964 30.9359C255.899 31.0484 255.866 31.1672 255.866 31.2922C255.866 31.3859 255.882 31.4703 255.913 31.5453C255.947 31.6172 256.007 31.6844 256.091 31.7469C256.175 31.8062 256.294 31.8625 256.447 31.9156C256.6 31.9687 256.796 32.0219 257.033 32.075C257.449 32.1687 257.791 32.2812 258.06 32.4125C258.328 32.5437 258.528 32.7047 258.66 32.8953C258.791 33.0859 258.857 33.3172 258.857 33.5891C258.857 33.8109 258.81 34.0141 258.716 34.1984C258.625 34.3828 258.492 34.5422 258.317 34.6766C258.146 34.8078 257.939 34.9109 257.699 34.9859C257.461 35.0578 257.194 35.0938 256.897 35.0938C256.45 35.0938 256.072 35.0141 255.763 34.8547C255.453 34.6953 255.219 34.4891 255.06 34.2359C254.9 33.9828 254.821 33.7156 254.821 33.4344H255.692C255.705 33.6719 255.774 33.8609 255.899 34.0016C256.024 34.1391 256.177 34.2375 256.358 34.2969C256.539 34.3531 256.719 34.3812 256.897 34.3812C257.135 34.3812 257.333 34.35 257.492 34.2875C257.655 34.225 257.778 34.1391 257.863 34.0297C257.947 33.9203 257.989 33.7953 257.989 33.6547ZM262.1 35.0938C261.747 35.0938 261.427 35.0344 261.139 34.9156C260.855 34.7937 260.61 34.6234 260.403 34.4047C260.2 34.1859 260.044 33.9266 259.935 33.6266C259.825 33.3266 259.771 32.9984 259.771 32.6422V32.4453C259.771 32.0328 259.832 31.6656 259.953 31.3437C260.075 31.0187 260.241 30.7437 260.45 30.5187C260.66 30.2937 260.897 30.1234 261.163 30.0078C261.428 29.8922 261.703 29.8344 261.988 29.8344C262.35 29.8344 262.663 29.8969 262.925 30.0219C263.191 30.1469 263.408 30.3219 263.577 30.5469C263.746 30.7687 263.871 31.0312 263.952 31.3344C264.033 31.6344 264.074 31.9625 264.074 32.3187V32.7078H260.286V32H263.207V31.9344C263.194 31.7094 263.147 31.4906 263.066 31.2781C262.988 31.0656 262.863 30.8906 262.691 30.7531C262.519 30.6156 262.285 30.5469 261.988 30.5469C261.791 30.5469 261.61 30.5891 261.444 30.6734C261.278 30.7547 261.136 30.8766 261.017 31.0391C260.899 31.2016 260.807 31.4 260.741 31.6344C260.675 31.8687 260.642 32.1391 260.642 32.4453V32.6422C260.642 32.8828 260.675 33.1094 260.741 33.3219C260.81 33.5312 260.908 33.7156 261.036 33.875C261.167 34.0344 261.325 34.1594 261.51 34.25C261.697 34.3406 261.91 34.3859 262.147 34.3859C262.453 34.3859 262.713 34.3234 262.925 34.1984C263.138 34.0734 263.324 33.9062 263.483 33.6969L264.008 34.1141C263.899 34.2797 263.76 34.4375 263.591 34.5875C263.422 34.7375 263.214 34.8594 262.967 34.9531C262.724 35.0469 262.435 35.0938 262.1 35.0938ZM265.953 30.725V35H265.086V29.9281H265.93L265.953 30.725ZM267.538 29.9L267.533 30.7062C267.461 30.6906 267.392 30.6812 267.327 30.6781C267.264 30.6719 267.192 30.6687 267.111 30.6687C266.911 30.6687 266.735 30.7 266.582 30.7625C266.428 30.825 266.299 30.9125 266.192 31.025C266.086 31.1375 266.002 31.2719 265.939 31.4281C265.88 31.5812 265.841 31.75 265.822 31.9344L265.578 32.075C265.578 31.7687 265.608 31.4812 265.667 31.2125C265.73 30.9437 265.825 30.7062 265.953 30.5C266.082 30.2906 266.244 30.1281 266.441 30.0125C266.641 29.8937 266.878 29.8344 267.153 29.8344C267.216 29.8344 267.288 29.8422 267.369 29.8578C267.45 29.8703 267.507 29.8844 267.538 29.9ZM269.966 34.2172L271.353 29.9281H272.239L270.416 35H269.835L269.966 34.2172ZM268.808 29.9281L270.238 34.2406L270.336 35H269.755L267.917 29.9281H268.808ZM275.989 34.1328V31.5219C275.989 31.3219 275.949 31.1484 275.867 31.0016C275.789 30.8516 275.671 30.7359 275.511 30.6547C275.352 30.5734 275.155 30.5328 274.921 30.5328C274.702 30.5328 274.51 30.5703 274.344 30.6453C274.182 30.7203 274.053 30.8187 273.96 30.9406C273.869 31.0625 273.824 31.1937 273.824 31.3344H272.957C272.957 31.1531 273.003 30.9734 273.097 30.7953C273.191 30.6172 273.325 30.4562 273.5 30.3125C273.678 30.1656 273.891 30.05 274.138 29.9656C274.388 29.8781 274.666 29.8344 274.972 29.8344C275.341 29.8344 275.666 29.8969 275.947 30.0219C276.232 30.1469 276.453 30.3359 276.613 30.5891C276.775 30.8391 276.857 31.1531 276.857 31.5312V33.8937C276.857 34.0625 276.871 34.2422 276.899 34.4328C276.93 34.6234 276.975 34.7875 277.035 34.925V35H276.13C276.086 34.9 276.052 34.7672 276.027 34.6016C276.002 34.4328 275.989 34.2766 275.989 34.1328ZM276.139 31.925L276.149 32.5344H275.272C275.025 32.5344 274.805 32.5547 274.611 32.5953C274.417 32.6328 274.255 32.6906 274.124 32.7687C273.992 32.8469 273.892 32.9453 273.824 33.0641C273.755 33.1797 273.721 33.3156 273.721 33.4719C273.721 33.6312 273.757 33.7766 273.828 33.9078C273.9 34.0391 274.008 34.1437 274.152 34.2219C274.299 34.2969 274.478 34.3344 274.691 34.3344C274.957 34.3344 275.191 34.2781 275.394 34.1656C275.597 34.0531 275.758 33.9156 275.877 33.7531C275.999 33.5906 276.064 33.4328 276.074 33.2797L276.444 33.6969C276.422 33.8281 276.363 33.9734 276.266 34.1328C276.169 34.2922 276.039 34.4453 275.877 34.5922C275.717 34.7359 275.527 34.8562 275.305 34.9531C275.086 35.0469 274.839 35.0938 274.564 35.0938C274.221 35.0938 273.919 35.0266 273.66 34.8922C273.403 34.7578 273.203 34.5781 273.06 34.3531C272.919 34.125 272.849 33.8703 272.849 33.5891C272.849 33.3172 272.902 33.0781 273.008 32.8719C273.114 32.6625 273.267 32.4891 273.467 32.3516C273.667 32.2109 273.908 32.1047 274.189 32.0328C274.471 31.9609 274.785 31.925 275.132 31.925H276.139ZM281.417 34.0156V27.8H282.289V35H281.492L281.417 34.0156ZM278.005 32.5203V32.4219C278.005 32.0344 278.052 31.6828 278.146 31.3672C278.242 31.0484 278.378 30.775 278.553 30.5469C278.732 30.3187 278.942 30.1437 279.186 30.0219C279.433 29.8969 279.708 29.8344 280.011 29.8344C280.33 29.8344 280.608 29.8906 280.846 30.0031C281.086 30.1125 281.289 30.2734 281.455 30.4859C281.624 30.6953 281.757 30.9484 281.853 31.2453C281.95 31.5422 282.017 31.8781 282.055 32.2531V32.6844C282.021 33.0562 281.953 33.3906 281.853 33.6875C281.757 33.9844 281.624 34.2375 281.455 34.4469C281.289 34.6562 281.086 34.8172 280.846 34.9297C280.605 35.0391 280.324 35.0938 280.002 35.0938C279.705 35.0938 279.433 35.0297 279.186 34.9016C278.942 34.7734 278.732 34.5937 278.553 34.3625C278.378 34.1312 278.242 33.8594 278.146 33.5469C278.052 33.2312 278.005 32.8891 278.005 32.5203ZM278.877 32.4219V32.5203C278.877 32.7734 278.902 33.0109 278.952 33.2328C279.005 33.4547 279.086 33.65 279.196 33.8187C279.305 33.9875 279.444 34.1203 279.613 34.2172C279.782 34.3109 279.983 34.3578 280.217 34.3578C280.505 34.3578 280.741 34.2969 280.925 34.175C281.113 34.0531 281.263 33.8922 281.375 33.6922C281.488 33.4922 281.575 33.275 281.638 33.0406V31.9109C281.6 31.7391 281.546 31.5734 281.474 31.4141C281.405 31.2516 281.314 31.1078 281.202 30.9828C281.092 30.8547 280.957 30.7531 280.794 30.6781C280.635 30.6031 280.446 30.5656 280.227 30.5656C279.989 30.5656 279.785 30.6156 279.613 30.7156C279.444 30.8125 279.305 30.9469 279.196 31.1187C279.086 31.2875 279.005 31.4844 278.952 31.7094C278.902 31.9312 278.877 32.1687 278.877 32.4219ZM283.41 32.5203V32.4125C283.41 32.0469 283.463 31.7078 283.569 31.3953C283.675 31.0797 283.828 30.8062 284.028 30.575C284.228 30.3406 284.471 30.1594 284.755 30.0312C285.039 29.9 285.358 29.8344 285.711 29.8344C286.067 29.8344 286.388 29.9 286.672 30.0312C286.96 30.1594 287.203 30.3406 287.403 30.575C287.607 30.8062 287.761 31.0797 287.867 31.3953C287.974 31.7078 288.027 32.0469 288.027 32.4125V32.5203C288.027 32.8859 287.974 33.225 287.867 33.5375C287.761 33.85 287.607 34.1234 287.403 34.3578C287.203 34.5891 286.961 34.7703 286.677 34.9016C286.396 35.0297 286.077 35.0938 285.721 35.0938C285.364 35.0938 285.044 35.0297 284.76 34.9016C284.475 34.7703 284.232 34.5891 284.028 34.3578C283.828 34.1234 283.675 33.85 283.569 33.5375C283.463 33.225 283.41 32.8859 283.41 32.5203ZM284.277 32.4125V32.5203C284.277 32.7734 284.307 33.0125 284.366 33.2375C284.425 33.4594 284.514 33.6562 284.633 33.8281C284.755 34 284.907 34.1359 285.088 34.2359C285.269 34.3328 285.48 34.3812 285.721 34.3812C285.958 34.3812 286.166 34.3328 286.344 34.2359C286.525 34.1359 286.675 34 286.794 33.8281C286.913 33.6562 287.002 33.4594 287.061 33.2375C287.124 33.0125 287.155 32.7734 287.155 32.5203V32.4125C287.155 32.1625 287.124 31.9266 287.061 31.7047C287.002 31.4797 286.911 31.2812 286.789 31.1094C286.671 30.9344 286.521 30.7969 286.339 30.6969C286.161 30.5969 285.952 30.5469 285.711 30.5469C285.474 30.5469 285.264 30.5969 285.083 30.6969C284.905 30.7969 284.755 30.9344 284.633 31.1094C284.514 31.2812 284.425 31.4797 284.366 31.7047C284.307 31.9266 284.277 32.1625 284.277 32.4125ZM292.067 33.6547C292.067 33.5297 292.039 33.4141 291.983 33.3078C291.93 33.1984 291.819 33.1 291.65 33.0125C291.485 32.9219 291.235 32.8437 290.9 32.7781C290.619 32.7187 290.364 32.6484 290.136 32.5672C289.911 32.4859 289.719 32.3875 289.56 32.2719C289.403 32.1562 289.283 32.0203 289.199 31.8641C289.114 31.7078 289.072 31.525 289.072 31.3156C289.072 31.1156 289.116 30.9266 289.203 30.7484C289.294 30.5703 289.421 30.4125 289.583 30.275C289.749 30.1375 289.947 30.0297 290.178 29.9516C290.41 29.8734 290.667 29.8344 290.952 29.8344C291.358 29.8344 291.705 29.9062 291.992 30.05C292.28 30.1937 292.5 30.3859 292.653 30.6266C292.807 30.8641 292.883 31.1281 292.883 31.4187H292.016C292.016 31.2781 291.974 31.1422 291.889 31.0109C291.808 30.8766 291.688 30.7656 291.528 30.6781C291.372 30.5906 291.18 30.5469 290.952 30.5469C290.711 30.5469 290.516 30.5844 290.366 30.6594C290.219 30.7312 290.111 30.8234 290.042 30.9359C289.977 31.0484 289.944 31.1672 289.944 31.2922C289.944 31.3859 289.96 31.4703 289.991 31.5453C290.025 31.6172 290.085 31.6844 290.169 31.7469C290.253 31.8062 290.372 31.8625 290.525 31.9156C290.678 31.9687 290.874 32.0219 291.111 32.075C291.527 32.1687 291.869 32.2812 292.138 32.4125C292.407 32.5437 292.607 32.7047 292.738 32.8953C292.869 33.0859 292.935 33.3172 292.935 33.5891C292.935 33.8109 292.888 34.0141 292.794 34.1984C292.703 34.3828 292.571 34.5422 292.396 34.6766C292.224 34.8078 292.017 34.9109 291.777 34.9859C291.539 35.0578 291.272 35.0938 290.975 35.0938C290.528 35.0938 290.15 35.0141 289.841 34.8547C289.532 34.6953 289.297 34.4891 289.138 34.2359C288.978 33.9828 288.899 33.7156 288.899 33.4344H289.771C289.783 33.6719 289.852 33.8609 289.977 34.0016C290.102 34.1391 290.255 34.2375 290.436 34.2969C290.617 34.3531 290.797 34.3812 290.975 34.3812C291.213 34.3812 291.411 34.35 291.571 34.2875C291.733 34.225 291.857 34.1391 291.941 34.0297C292.025 33.9203 292.067 33.7953 292.067 33.6547Z" fill="#151515"/>
</g>
<defs>
<clipPath id="clip0_3782_6377">
<rect width="115.385" height="30" fill="white" transform="translate(0 0.209961)"/>
</clipPath>
</defs>
</svg>
