<svg width="25" height="30" viewBox="0 0 25 30" fill="none" xmlns="http://www.w3.org/2000/svg">
<path d="M21.1603 28.8083C21.1843 28.3943 21.2011 27.9768 21.2011 27.553C21.2011 21.9729 19.069 17.1778 16.0067 15.0001C19.069 12.8224 21.2011 8.02728 21.2011 2.44719C21.2011 2.02342 21.1843 1.60593 21.1603 1.19189H3.48834C3.46435 1.60593 3.44763 2.02342 3.44763 2.44719C3.44763 8.02728 5.57974 12.8224 8.64202 15.0001C5.57974 17.1778 3.44763 21.9729 3.44763 27.553C3.44763 27.9768 3.46435 28.3943 3.48834 28.8083H21.1603Z" fill="#ECF1F6"/>
<path d="M23.8311 0.534302H0.817446C0.4543 0.534302 0.159912 0.82869 0.159912 1.19184V2.5069C0.159912 2.87005 0.4543 3.16444 0.817446 3.16444H23.8311C24.1943 3.16444 24.4887 2.87005 24.4887 2.5069V1.19184C24.4887 0.82869 24.1943 0.534302 23.8311 0.534302Z" fill="black"/>
<path d="M23.8311 26.8357H0.817446C0.4543 26.8357 0.159912 27.1301 0.159912 27.4932V28.8083C0.159912 29.1714 0.4543 29.4658 0.817446 29.4658H23.8311C24.1943 29.4658 24.4887 29.1714 24.4887 28.8083V27.4932C24.4887 27.1301 24.1943 26.8357 23.8311 26.8357Z" fill="black"/>
<mask id="mask0_3782_6121" style="mask-type:luminance" maskUnits="userSpaceOnUse" x="6" y="14" width="13" height="7">
<path d="M18.5709 14.0774H6.07776V20.9815H18.5709V14.0774Z" fill="white"/>
</mask>
<g mask="url(#mask0_3782_6121)">
<path d="M18.5709 7.43848C17.9853 9.90983 14.2374 14.3426 12.3243 14.3426C10.4894 14.3426 6.70242 9.94906 6.07776 7.43848H18.5709Z" fill="#E73F5D"/>
</g>
<mask id="mask1_3782_6121" style="mask-type:luminance" maskUnits="userSpaceOnUse" x="6" y="18" width="13" height="8">
<path d="M18.5709 18.6165H6.07776V25.5206H18.5709V18.6165Z" fill="white"/>
</mask>
<g mask="url(#mask1_3782_6121)">
<path d="M6.07776 25.7857H18.5709C17.9463 23.2751 14.1593 18.8816 12.3243 18.8816C10.4113 18.8816 6.66337 23.3143 6.07776 25.7857Z" fill="#E73F5D"/>
</g>
</svg>
