<svg width="59" height="59" viewBox="0 0 59 59" fill="none" xmlns="http://www.w3.org/2000/svg">
<path fill-rule="evenodd" clip-rule="evenodd" d="M29.5 59C45.7924 59 59 45.7924 59 29.5C59 13.2076 45.7924 0 29.5 0C13.2076 0 0 13.2076 0 29.5C0 45.7924 13.2076 59 29.5 59ZM38.703 13.7423C39.1509 12.1511 37.6068 11.2102 36.1965 12.2149L16.5098 26.2396C14.9804 27.3292 15.221 29.5 16.8712 29.5H22.0552V29.4599H32.1587L23.9263 32.3646L20.2971 45.2577C19.8491 46.8489 21.3931 47.7898 22.8035 46.7851L42.4902 32.7605C44.0196 31.6709 43.7789 29.5 42.1288 29.5H34.2674L38.703 13.7423Z" fill="#F15757"/>
</svg>
