<svg width="218" height="77" viewBox="0 0 218 77" fill="none" xmlns="http://www.w3.org/2000/svg">
<path d="M5.55469 13H1.10156V4.59766H5.36719V5.48828H2.08594V8.2832H5.12109V9.16797H2.08594V12.1094H5.55469V13ZM6.67969 12.7832V11.752C7.20312 12.1387 7.7793 12.332 8.4082 12.332C9.25195 12.332 9.67383 12.0508 9.67383 11.4883C9.67383 11.3281 9.63672 11.1934 9.5625 11.084C9.49219 10.9707 9.39453 10.8711 9.26953 10.7852C9.14844 10.6992 9.00391 10.623 8.83594 10.5566C8.67188 10.4863 8.49414 10.4141 8.30273 10.3398C8.03711 10.2344 7.80273 10.1289 7.59961 10.0234C7.40039 9.91406 7.23242 9.79297 7.0957 9.66016C6.96289 9.52344 6.86133 9.36914 6.79102 9.19727C6.72461 9.02539 6.69141 8.82422 6.69141 8.59375C6.69141 8.3125 6.75586 8.06445 6.88477 7.84961C7.01367 7.63086 7.18555 7.44922 7.40039 7.30469C7.61523 7.15625 7.85938 7.04492 8.13281 6.9707C8.41016 6.89648 8.69531 6.85938 8.98828 6.85938C9.50781 6.85938 9.97266 6.94922 10.3828 7.12891V8.10156C9.94141 7.8125 9.43359 7.66797 8.85938 7.66797C8.67969 7.66797 8.51758 7.68945 8.37305 7.73242C8.22852 7.77148 8.10352 7.82812 7.99805 7.90234C7.89648 7.97656 7.81641 8.06641 7.75781 8.17188C7.70312 8.27344 7.67578 8.38672 7.67578 8.51172C7.67578 8.66797 7.70312 8.79883 7.75781 8.9043C7.81641 9.00977 7.90039 9.10352 8.00977 9.18555C8.11914 9.26758 8.25195 9.3418 8.4082 9.4082C8.56445 9.47461 8.74219 9.54688 8.94141 9.625C9.20703 9.72656 9.44531 9.83203 9.65625 9.94141C9.86719 10.0469 10.0469 10.168 10.1953 10.3047C10.3438 10.4375 10.457 10.5918 10.5352 10.7676C10.6172 10.9434 10.6582 11.1523 10.6582 11.3945C10.6582 11.6914 10.5918 11.9492 10.459 12.168C10.3301 12.3867 10.1562 12.5684 9.9375 12.7129C9.71875 12.8574 9.4668 12.9648 9.18164 13.0352C8.89648 13.1055 8.59766 13.1406 8.28516 13.1406C7.66797 13.1406 7.13281 13.0215 6.67969 12.7832ZM11.7773 12.7832V11.752C12.3008 12.1387 12.877 12.332 13.5059 12.332C14.3496 12.332 14.7715 12.0508 14.7715 11.4883C14.7715 11.3281 14.7344 11.1934 14.6602 11.084C14.5898 10.9707 14.4922 10.8711 14.3672 10.7852C14.2461 10.6992 14.1016 10.623 13.9336 10.5566C13.7695 10.4863 13.5918 10.4141 13.4004 10.3398C13.1348 10.2344 12.9004 10.1289 12.6973 10.0234C12.498 9.91406 12.3301 9.79297 12.1934 9.66016C12.0605 9.52344 11.959 9.36914 11.8887 9.19727C11.8223 9.02539 11.7891 8.82422 11.7891 8.59375C11.7891 8.3125 11.8535 8.06445 11.9824 7.84961C12.1113 7.63086 12.2832 7.44922 12.498 7.30469C12.7129 7.15625 12.957 7.04492 13.2305 6.9707C13.5078 6.89648 13.793 6.85938 14.0859 6.85938C14.6055 6.85938 15.0703 6.94922 15.4805 7.12891V8.10156C15.0391 7.8125 14.5312 7.66797 13.957 7.66797C13.7773 7.66797 13.6152 7.68945 13.4707 7.73242C13.3262 7.77148 13.2012 7.82812 13.0957 7.90234C12.9941 7.97656 12.9141 8.06641 12.8555 8.17188C12.8008 8.27344 12.7734 8.38672 12.7734 8.51172C12.7734 8.66797 12.8008 8.79883 12.8555 8.9043C12.9141 9.00977 12.998 9.10352 13.1074 9.18555C13.2168 9.26758 13.3496 9.3418 13.5059 9.4082C13.6621 9.47461 13.8398 9.54688 14.0391 9.625C14.3047 9.72656 14.543 9.83203 14.7539 9.94141C14.9648 10.0469 15.1445 10.168 15.293 10.3047C15.4414 10.4375 15.5547 10.5918 15.6328 10.7676C15.7148 10.9434 15.7559 11.1523 15.7559 11.3945C15.7559 11.6914 15.6895 11.9492 15.5566 12.168C15.4277 12.3867 15.2539 12.5684 15.0352 12.7129C14.8164 12.8574 14.5645 12.9648 14.2793 13.0352C13.9941 13.1055 13.6953 13.1406 13.3828 13.1406C12.7656 13.1406 12.2305 13.0215 11.7773 12.7832ZM21.5332 13H20.5723V12.0625H20.5488C20.1309 12.7812 19.5156 13.1406 18.7031 13.1406C18.1055 13.1406 17.6367 12.9824 17.2969 12.666C16.9609 12.3496 16.793 11.9297 16.793 11.4062C16.793 10.2852 17.4531 9.63281 18.7734 9.44922L20.5723 9.19727C20.5723 8.17773 20.1602 7.66797 19.3359 7.66797C18.6133 7.66797 17.9609 7.91406 17.3789 8.40625V7.42188C17.9688 7.04688 18.6484 6.85938 19.418 6.85938C20.8281 6.85938 21.5332 7.60547 21.5332 9.09766V13ZM20.5723 9.96484L19.125 10.1641C18.6797 10.2266 18.3438 10.3379 18.1172 10.498C17.8906 10.6543 17.7773 10.9336 17.7773 11.3359C17.7773 11.6289 17.8809 11.8691 18.0879 12.0566C18.2988 12.2402 18.5781 12.332 18.9258 12.332C19.4023 12.332 19.7949 12.166 20.1035 11.834C20.416 11.498 20.5723 11.0742 20.5723 10.5625V9.96484ZM30.7266 12.7246C30.2656 13.002 29.7188 13.1406 29.0859 13.1406C28.2305 13.1406 27.5391 12.8633 27.0117 12.3086C26.4883 11.75 26.2266 11.0273 26.2266 10.1406C26.2266 9.15234 26.5098 8.35938 27.0762 7.76172C27.6426 7.16016 28.3984 6.85938 29.3438 6.85938C29.8711 6.85938 30.3359 6.95703 30.7383 7.15234V8.13672C30.293 7.82422 29.8164 7.66797 29.3086 7.66797C28.6953 7.66797 28.1914 7.88867 27.7969 8.33008C27.4062 8.76758 27.2109 9.34375 27.2109 10.0586C27.2109 10.7617 27.3945 11.3164 27.7617 11.7227C28.1328 12.1289 28.6289 12.332 29.25 12.332C29.7734 12.332 30.2656 12.1582 30.7266 11.8105V12.7246ZM34.6875 13.1406C33.8008 13.1406 33.0918 12.8613 32.5605 12.3027C32.0332 11.7402 31.7695 10.9961 31.7695 10.0703C31.7695 9.0625 32.0449 8.27539 32.5957 7.70898C33.1465 7.14258 33.8906 6.85938 34.8281 6.85938C35.7227 6.85938 36.4199 7.13477 36.9199 7.68555C37.4238 8.23633 37.6758 9 37.6758 9.97656C37.6758 10.9336 37.4043 11.7012 36.8613 12.2793C36.3223 12.8535 35.5977 13.1406 34.6875 13.1406ZM34.7578 7.66797C34.1406 7.66797 33.6523 7.87891 33.293 8.30078C32.9336 8.71875 32.7539 9.29688 32.7539 10.0352C32.7539 10.7461 32.9355 11.3066 33.2988 11.7168C33.6621 12.127 34.1484 12.332 34.7578 12.332C35.3789 12.332 35.8555 12.1309 36.1875 11.7285C36.5234 11.3262 36.6914 10.7539 36.6914 10.0117C36.6914 9.26172 36.5234 8.68359 36.1875 8.27734C35.8555 7.87109 35.3789 7.66797 34.7578 7.66797ZM47.7305 13H46.7695V9.55469C46.7695 8.89062 46.666 8.41016 46.459 8.11328C46.2559 7.81641 45.9121 7.66797 45.4277 7.66797C45.0176 7.66797 44.668 7.85547 44.3789 8.23047C44.0938 8.60547 43.9512 9.05469 43.9512 9.57812V13H42.9902V9.4375C42.9902 8.25781 42.5352 7.66797 41.625 7.66797C41.2031 7.66797 40.8555 7.8457 40.582 8.20117C40.3086 8.55273 40.1719 9.01172 40.1719 9.57812V13H39.2109V7H40.1719V7.94922H40.1953C40.6211 7.22266 41.2422 6.85938 42.0586 6.85938C42.4688 6.85938 42.8262 6.97461 43.1309 7.20508C43.4355 7.43164 43.6445 7.73047 43.7578 8.10156C44.2031 7.27344 44.8672 6.85938 45.75 6.85938C47.0703 6.85938 47.7305 7.67383 47.7305 9.30273V13ZM50.5312 12.1328H50.5078V15.7598H49.5469V7H50.5078V8.05469H50.5312C51.0039 7.25781 51.6953 6.85938 52.6055 6.85938C53.3789 6.85938 53.9824 7.12891 54.416 7.66797C54.8496 8.20312 55.0664 8.92188 55.0664 9.82422C55.0664 10.8281 54.8223 11.6328 54.334 12.2383C53.8457 12.8398 53.1777 13.1406 52.3301 13.1406C51.5527 13.1406 50.9531 12.8047 50.5312 12.1328ZM50.5078 9.71289V10.5508C50.5078 11.0469 50.668 11.4688 50.9883 11.8164C51.3125 12.1602 51.7227 12.332 52.2188 12.332C52.8008 12.332 53.2559 12.1094 53.584 11.6641C53.916 11.2188 54.082 10.5996 54.082 9.80664C54.082 9.13867 53.9277 8.61523 53.6191 8.23633C53.3105 7.85742 52.8926 7.66797 52.3652 7.66797C51.8066 7.66797 51.3574 7.86328 51.0176 8.25391C50.6777 8.64062 50.5078 9.12695 50.5078 9.71289ZM59.7305 7.97266C59.5625 7.84375 59.3203 7.7793 59.0039 7.7793C58.5938 7.7793 58.25 7.97266 57.9727 8.35938C57.6992 8.74609 57.5625 9.27344 57.5625 9.94141V13H56.6016V7H57.5625V8.23633H57.5859C57.7227 7.81445 57.9316 7.48633 58.2129 7.25195C58.4941 7.01367 58.8086 6.89453 59.1562 6.89453C59.4062 6.89453 59.5977 6.92188 59.7305 6.97656V7.97266ZM65.0684 13H64.1074V12.0625H64.084C63.666 12.7812 63.0508 13.1406 62.2383 13.1406C61.6406 13.1406 61.1719 12.9824 60.832 12.666C60.4961 12.3496 60.3281 11.9297 60.3281 11.4062C60.3281 10.2852 60.9883 9.63281 62.3086 9.44922L64.1074 9.19727C64.1074 8.17773 63.6953 7.66797 62.8711 7.66797C62.1484 7.66797 61.4961 7.91406 60.9141 8.40625V7.42188C61.5039 7.04688 62.1836 6.85938 62.9531 6.85938C64.3633 6.85938 65.0684 7.60547 65.0684 9.09766V13ZM64.1074 9.96484L62.6602 10.1641C62.2148 10.2266 61.8789 10.3379 61.6523 10.498C61.4258 10.6543 61.3125 10.9336 61.3125 11.3359C61.3125 11.6289 61.416 11.8691 61.623 12.0566C61.834 12.2402 62.1133 12.332 62.4609 12.332C62.9375 12.332 63.3301 12.166 63.6387 11.834C63.9512 11.498 64.1074 11.0742 64.1074 10.5625V9.96484ZM74.9941 10.2402H70.7578C70.7734 10.9082 70.9531 11.4238 71.2969 11.7871C71.6406 12.1504 72.1133 12.332 72.7148 12.332C73.3906 12.332 74.0117 12.1094 74.5781 11.6641V12.5664C74.0508 12.9492 73.3535 13.1406 72.4863 13.1406C71.6387 13.1406 70.9727 12.8691 70.4883 12.3262C70.0039 11.7793 69.7617 11.0117 69.7617 10.0234C69.7617 9.08984 70.0254 8.33008 70.5527 7.74414C71.084 7.1543 71.7422 6.85938 72.5273 6.85938C73.3125 6.85938 73.9199 7.11328 74.3496 7.62109C74.7793 8.12891 74.9941 8.83398 74.9941 9.73633V10.2402ZM74.0098 9.42578C74.0059 8.87109 73.8711 8.43945 73.6055 8.13086C73.3438 7.82227 72.9785 7.66797 72.5098 7.66797C72.0566 7.66797 71.6719 7.83008 71.3555 8.1543C71.0391 8.47852 70.8438 8.90234 70.7695 9.42578H74.0098ZM76.0898 12.7832V11.752C76.6133 12.1387 77.1895 12.332 77.8184 12.332C78.6621 12.332 79.084 12.0508 79.084 11.4883C79.084 11.3281 79.0469 11.1934 78.9727 11.084C78.9023 10.9707 78.8047 10.8711 78.6797 10.7852C78.5586 10.6992 78.4141 10.623 78.2461 10.5566C78.082 10.4863 77.9043 10.4141 77.7129 10.3398C77.4473 10.2344 77.2129 10.1289 77.0098 10.0234C76.8105 9.91406 76.6426 9.79297 76.5059 9.66016C76.373 9.52344 76.2715 9.36914 76.2012 9.19727C76.1348 9.02539 76.1016 8.82422 76.1016 8.59375C76.1016 8.3125 76.166 8.06445 76.2949 7.84961C76.4238 7.63086 76.5957 7.44922 76.8105 7.30469C77.0254 7.15625 77.2695 7.04492 77.543 6.9707C77.8203 6.89648 78.1055 6.85938 78.3984 6.85938C78.918 6.85938 79.3828 6.94922 79.793 7.12891V8.10156C79.3516 7.8125 78.8438 7.66797 78.2695 7.66797C78.0898 7.66797 77.9277 7.68945 77.7832 7.73242C77.6387 7.77148 77.5137 7.82812 77.4082 7.90234C77.3066 7.97656 77.2266 8.06641 77.168 8.17188C77.1133 8.27344 77.0859 8.38672 77.0859 8.51172C77.0859 8.66797 77.1133 8.79883 77.168 8.9043C77.2266 9.00977 77.3105 9.10352 77.4199 9.18555C77.5293 9.26758 77.6621 9.3418 77.8184 9.4082C77.9746 9.47461 78.1523 9.54688 78.3516 9.625C78.6172 9.72656 78.8555 9.83203 79.0664 9.94141C79.2773 10.0469 79.457 10.168 79.6055 10.3047C79.7539 10.4375 79.8672 10.5918 79.9453 10.7676C80.0273 10.9434 80.0684 11.1523 80.0684 11.3945C80.0684 11.6914 80.002 11.9492 79.8691 12.168C79.7402 12.3867 79.5664 12.5684 79.3477 12.7129C79.1289 12.8574 78.877 12.9648 78.5918 13.0352C78.3066 13.1055 78.0078 13.1406 77.6953 13.1406C77.0781 13.1406 76.543 13.0215 76.0898 12.7832ZM84.334 12.9414C84.1074 13.0664 83.8086 13.1289 83.4375 13.1289C82.3867 13.1289 81.8613 12.543 81.8613 11.3711V7.82031H80.8301V7H81.8613V5.53516L82.8223 5.22461V7H84.334V7.82031H82.8223V11.2012C82.8223 11.6035 82.8906 11.8906 83.0273 12.0625C83.1641 12.2344 83.3906 12.3203 83.707 12.3203C83.9492 12.3203 84.1582 12.2539 84.334 12.1211V12.9414ZM89.9121 13H88.9512V12.0625H88.9277C88.5098 12.7812 87.8945 13.1406 87.082 13.1406C86.4844 13.1406 86.0156 12.9824 85.6758 12.666C85.3398 12.3496 85.1719 11.9297 85.1719 11.4062C85.1719 10.2852 85.832 9.63281 87.1523 9.44922L88.9512 9.19727C88.9512 8.17773 88.5391 7.66797 87.7148 7.66797C86.9922 7.66797 86.3398 7.91406 85.7578 8.40625V7.42188C86.3477 7.04688 87.0273 6.85938 87.7969 6.85938C89.207 6.85938 89.9121 7.60547 89.9121 9.09766V13ZM88.9512 9.96484L87.5039 10.1641C87.0586 10.2266 86.7227 10.3379 86.4961 10.498C86.2695 10.6543 86.1562 10.9336 86.1562 11.3359C86.1562 11.6289 86.2598 11.8691 86.4668 12.0566C86.6777 12.2402 86.957 12.332 87.3047 12.332C87.7812 12.332 88.1738 12.166 88.4824 11.834C88.7949 11.498 88.9512 11.0742 88.9512 10.5625V9.96484ZM89.0801 3.94141L87.5449 5.86328H86.8008L88.1074 3.94141H89.0801ZM94.6523 12.7832V11.752C95.1758 12.1387 95.752 12.332 96.3809 12.332C97.2246 12.332 97.6465 12.0508 97.6465 11.4883C97.6465 11.3281 97.6094 11.1934 97.5352 11.084C97.4648 10.9707 97.3672 10.8711 97.2422 10.7852C97.1211 10.6992 96.9766 10.623 96.8086 10.5566C96.6445 10.4863 96.4668 10.4141 96.2754 10.3398C96.0098 10.2344 95.7754 10.1289 95.5723 10.0234C95.373 9.91406 95.2051 9.79297 95.0684 9.66016C94.9355 9.52344 94.834 9.36914 94.7637 9.19727C94.6973 9.02539 94.6641 8.82422 94.6641 8.59375C94.6641 8.3125 94.7285 8.06445 94.8574 7.84961C94.9863 7.63086 95.1582 7.44922 95.373 7.30469C95.5879 7.15625 95.832 7.04492 96.1055 6.9707C96.3828 6.89648 96.668 6.85938 96.9609 6.85938C97.4805 6.85938 97.9453 6.94922 98.3555 7.12891V8.10156C97.9141 7.8125 97.4062 7.66797 96.832 7.66797C96.6523 7.66797 96.4902 7.68945 96.3457 7.73242C96.2012 7.77148 96.0762 7.82812 95.9707 7.90234C95.8691 7.97656 95.7891 8.06641 95.7305 8.17188C95.6758 8.27344 95.6484 8.38672 95.6484 8.51172C95.6484 8.66797 95.6758 8.79883 95.7305 8.9043C95.7891 9.00977 95.873 9.10352 95.9824 9.18555C96.0918 9.26758 96.2246 9.3418 96.3809 9.4082C96.5371 9.47461 96.7148 9.54688 96.9141 9.625C97.1797 9.72656 97.418 9.83203 97.6289 9.94141C97.8398 10.0469 98.0195 10.168 98.168 10.3047C98.3164 10.4375 98.4297 10.5918 98.5078 10.7676C98.5898 10.9434 98.6309 11.1523 98.6309 11.3945C98.6309 11.6914 98.5645 11.9492 98.4316 12.168C98.3027 12.3867 98.1289 12.5684 97.9102 12.7129C97.6914 12.8574 97.4395 12.9648 97.1543 13.0352C96.8691 13.1055 96.5703 13.1406 96.2578 13.1406C95.6406 13.1406 95.1055 13.0215 94.6523 12.7832ZM104.936 10.2402H100.699C100.715 10.9082 100.895 11.4238 101.238 11.7871C101.582 12.1504 102.055 12.332 102.656 12.332C103.332 12.332 103.953 12.1094 104.52 11.6641V12.5664C103.992 12.9492 103.295 13.1406 102.428 13.1406C101.58 13.1406 100.914 12.8691 100.43 12.3262C99.9453 11.7793 99.7031 11.0117 99.7031 10.0234C99.7031 9.08984 99.9668 8.33008 100.494 7.74414C101.025 7.1543 101.684 6.85938 102.469 6.85938C103.254 6.85938 103.861 7.11328 104.291 7.62109C104.721 8.12891 104.936 8.83398 104.936 9.73633V10.2402ZM103.951 9.42578C103.947 8.87109 103.812 8.43945 103.547 8.13086C103.285 7.82227 102.92 7.66797 102.451 7.66797C101.998 7.66797 101.613 7.83008 101.297 8.1543C100.98 8.47852 100.785 8.90234 100.711 9.42578H103.951ZM111.375 13H110.414V9.57812C110.414 8.30469 109.949 7.66797 109.02 7.66797C108.539 7.66797 108.141 7.84961 107.824 8.21289C107.512 8.57227 107.355 9.02734 107.355 9.57812V13H106.395V7H107.355V7.99609H107.379C107.832 7.23828 108.488 6.85938 109.348 6.85938C110.004 6.85938 110.506 7.07227 110.854 7.49805C111.201 7.91992 111.375 8.53125 111.375 9.33203V13ZM118.312 13H117.352V11.9805H117.328C116.883 12.7539 116.195 13.1406 115.266 13.1406C114.512 13.1406 113.908 12.873 113.455 12.3379C113.006 11.7988 112.781 11.0664 112.781 10.1406C112.781 9.14844 113.031 8.35352 113.531 7.75586C114.031 7.1582 114.697 6.85938 115.529 6.85938C116.354 6.85938 116.953 7.18359 117.328 7.83203H117.352V4.11719H118.312V13ZM117.352 10.2871V9.40234C117.352 8.91797 117.191 8.50781 116.871 8.17188C116.551 7.83594 116.145 7.66797 115.652 7.66797C115.066 7.66797 114.605 7.88281 114.27 8.3125C113.934 8.74219 113.766 9.33594 113.766 10.0938C113.766 10.7852 113.926 11.332 114.246 11.7344C114.57 12.1328 115.004 12.332 115.547 12.332C116.082 12.332 116.516 12.1387 116.848 11.752C117.184 11.3652 117.352 10.877 117.352 10.2871ZM122.766 13.1406C121.879 13.1406 121.17 12.8613 120.639 12.3027C120.111 11.7402 119.848 10.9961 119.848 10.0703C119.848 9.0625 120.123 8.27539 120.674 7.70898C121.225 7.14258 121.969 6.85938 122.906 6.85938C123.801 6.85938 124.498 7.13477 124.998 7.68555C125.502 8.23633 125.754 9 125.754 9.97656C125.754 10.9336 125.482 11.7012 124.939 12.2793C124.4 12.8535 123.676 13.1406 122.766 13.1406ZM122.836 7.66797C122.219 7.66797 121.73 7.87891 121.371 8.30078C121.012 8.71875 120.832 9.29688 120.832 10.0352C120.832 10.7461 121.014 11.3066 121.377 11.7168C121.74 12.127 122.227 12.332 122.836 12.332C123.457 12.332 123.934 12.1309 124.266 11.7285C124.602 11.3262 124.77 10.7539 124.77 10.0117C124.77 9.26172 124.602 8.68359 124.266 8.27734C123.934 7.87109 123.457 7.66797 122.836 7.66797ZM131.566 12.1328H131.543V15.7598H130.582V7H131.543V8.05469H131.566C132.039 7.25781 132.73 6.85938 133.641 6.85938C134.414 6.85938 135.018 7.12891 135.451 7.66797C135.885 8.20312 136.102 8.92188 136.102 9.82422C136.102 10.8281 135.857 11.6328 135.369 12.2383C134.881 12.8398 134.213 13.1406 133.365 13.1406C132.588 13.1406 131.988 12.8047 131.566 12.1328ZM131.543 9.71289V10.5508C131.543 11.0469 131.703 11.4688 132.023 11.8164C132.348 12.1602 132.758 12.332 133.254 12.332C133.836 12.332 134.291 12.1094 134.619 11.6641C134.951 11.2188 135.117 10.5996 135.117 9.80664C135.117 9.13867 134.963 8.61523 134.654 8.23633C134.346 7.85742 133.928 7.66797 133.4 7.66797C132.842 7.66797 132.393 7.86328 132.053 8.25391C131.713 8.64062 131.543 9.12695 131.543 9.71289ZM140.766 7.97266C140.598 7.84375 140.355 7.7793 140.039 7.7793C139.629 7.7793 139.285 7.97266 139.008 8.35938C138.734 8.74609 138.598 9.27344 138.598 9.94141V13H137.637V7H138.598V8.23633H138.621C138.758 7.81445 138.967 7.48633 139.248 7.25195C139.529 7.01367 139.844 6.89453 140.191 6.89453C140.441 6.89453 140.633 6.92188 140.766 6.97656V7.97266ZM144.316 13.1406C143.43 13.1406 142.721 12.8613 142.189 12.3027C141.662 11.7402 141.398 10.9961 141.398 10.0703C141.398 9.0625 141.674 8.27539 142.225 7.70898C142.775 7.14258 143.52 6.85938 144.457 6.85938C145.352 6.85938 146.049 7.13477 146.549 7.68555C147.053 8.23633 147.305 9 147.305 9.97656C147.305 10.9336 147.033 11.7012 146.49 12.2793C145.951 12.8535 145.227 13.1406 144.316 13.1406ZM144.387 7.66797C143.77 7.66797 143.281 7.87891 142.922 8.30078C142.562 8.71875 142.383 9.29688 142.383 10.0352C142.383 10.7461 142.564 11.3066 142.928 11.7168C143.291 12.127 143.777 12.332 144.387 12.332C145.008 12.332 145.484 12.1309 145.816 11.7285C146.152 11.3262 146.32 10.7539 146.32 10.0117C146.32 9.26172 146.152 8.68359 145.816 8.27734C145.484 7.87109 145.008 7.66797 144.387 7.66797ZM152.93 12.7246C152.469 13.002 151.922 13.1406 151.289 13.1406C150.434 13.1406 149.742 12.8633 149.215 12.3086C148.691 11.75 148.43 11.0273 148.43 10.1406C148.43 9.15234 148.713 8.35938 149.279 7.76172C149.846 7.16016 150.602 6.85938 151.547 6.85938C152.074 6.85938 152.539 6.95703 152.941 7.15234V8.13672C152.496 7.82422 152.02 7.66797 151.512 7.66797C150.898 7.66797 150.395 7.88867 150 8.33008C149.609 8.76758 149.414 9.34375 149.414 10.0586C149.414 10.7617 149.598 11.3164 149.965 11.7227C150.336 12.1289 150.832 12.332 151.453 12.332C151.977 12.332 152.469 12.1582 152.93 11.8105V12.7246ZM159.205 10.2402H154.969C154.984 10.9082 155.164 11.4238 155.508 11.7871C155.852 12.1504 156.324 12.332 156.926 12.332C157.602 12.332 158.223 12.1094 158.789 11.6641V12.5664C158.262 12.9492 157.564 13.1406 156.697 13.1406C155.85 13.1406 155.184 12.8691 154.699 12.3262C154.215 11.7793 153.973 11.0117 153.973 10.0234C153.973 9.08984 154.236 8.33008 154.764 7.74414C155.295 7.1543 155.953 6.85938 156.738 6.85938C157.523 6.85938 158.131 7.11328 158.561 7.62109C158.99 8.12891 159.205 8.83398 159.205 9.73633V10.2402ZM158.221 9.42578C158.217 8.87109 158.082 8.43945 157.816 8.13086C157.555 7.82227 157.189 7.66797 156.721 7.66797C156.268 7.66797 155.883 7.83008 155.566 8.1543C155.25 8.47852 155.055 8.90234 154.98 9.42578H158.221ZM160.301 12.7832V11.752C160.824 12.1387 161.4 12.332 162.029 12.332C162.873 12.332 163.295 12.0508 163.295 11.4883C163.295 11.3281 163.258 11.1934 163.184 11.084C163.113 10.9707 163.016 10.8711 162.891 10.7852C162.77 10.6992 162.625 10.623 162.457 10.5566C162.293 10.4863 162.115 10.4141 161.924 10.3398C161.658 10.2344 161.424 10.1289 161.221 10.0234C161.021 9.91406 160.854 9.79297 160.717 9.66016C160.584 9.52344 160.482 9.36914 160.412 9.19727C160.346 9.02539 160.312 8.82422 160.312 8.59375C160.312 8.3125 160.377 8.06445 160.506 7.84961C160.635 7.63086 160.807 7.44922 161.021 7.30469C161.236 7.15625 161.48 7.04492 161.754 6.9707C162.031 6.89648 162.316 6.85938 162.609 6.85938C163.129 6.85938 163.594 6.94922 164.004 7.12891V8.10156C163.562 7.8125 163.055 7.66797 162.48 7.66797C162.301 7.66797 162.139 7.68945 161.994 7.73242C161.85 7.77148 161.725 7.82812 161.619 7.90234C161.518 7.97656 161.438 8.06641 161.379 8.17188C161.324 8.27344 161.297 8.38672 161.297 8.51172C161.297 8.66797 161.324 8.79883 161.379 8.9043C161.438 9.00977 161.521 9.10352 161.631 9.18555C161.74 9.26758 161.873 9.3418 162.029 9.4082C162.186 9.47461 162.363 9.54688 162.562 9.625C162.828 9.72656 163.066 9.83203 163.277 9.94141C163.488 10.0469 163.668 10.168 163.816 10.3047C163.965 10.4375 164.078 10.5918 164.156 10.7676C164.238 10.9434 164.279 11.1523 164.279 11.3945C164.279 11.6914 164.213 11.9492 164.08 12.168C163.951 12.3867 163.777 12.5684 163.559 12.7129C163.34 12.8574 163.088 12.9648 162.803 13.0352C162.518 13.1055 162.219 13.1406 161.906 13.1406C161.289 13.1406 160.754 13.0215 160.301 12.7832ZM165.398 12.7832V11.752C165.922 12.1387 166.498 12.332 167.127 12.332C167.971 12.332 168.393 12.0508 168.393 11.4883C168.393 11.3281 168.355 11.1934 168.281 11.084C168.211 10.9707 168.113 10.8711 167.988 10.7852C167.867 10.6992 167.723 10.623 167.555 10.5566C167.391 10.4863 167.213 10.4141 167.021 10.3398C166.756 10.2344 166.521 10.1289 166.318 10.0234C166.119 9.91406 165.951 9.79297 165.814 9.66016C165.682 9.52344 165.58 9.36914 165.51 9.19727C165.443 9.02539 165.41 8.82422 165.41 8.59375C165.41 8.3125 165.475 8.06445 165.604 7.84961C165.732 7.63086 165.904 7.44922 166.119 7.30469C166.334 7.15625 166.578 7.04492 166.852 6.9707C167.129 6.89648 167.414 6.85938 167.707 6.85938C168.227 6.85938 168.691 6.94922 169.102 7.12891V8.10156C168.66 7.8125 168.152 7.66797 167.578 7.66797C167.398 7.66797 167.236 7.68945 167.092 7.73242C166.947 7.77148 166.822 7.82812 166.717 7.90234C166.615 7.97656 166.535 8.06641 166.477 8.17188C166.422 8.27344 166.395 8.38672 166.395 8.51172C166.395 8.66797 166.422 8.79883 166.477 8.9043C166.535 9.00977 166.619 9.10352 166.729 9.18555C166.838 9.26758 166.971 9.3418 167.127 9.4082C167.283 9.47461 167.461 9.54688 167.66 9.625C167.926 9.72656 168.164 9.83203 168.375 9.94141C168.586 10.0469 168.766 10.168 168.914 10.3047C169.062 10.4375 169.176 10.5918 169.254 10.7676C169.336 10.9434 169.377 11.1523 169.377 11.3945C169.377 11.6914 169.311 11.9492 169.178 12.168C169.049 12.3867 168.875 12.5684 168.656 12.7129C168.438 12.8574 168.186 12.9648 167.9 13.0352C167.615 13.1055 167.316 13.1406 167.004 13.1406C166.387 13.1406 165.852 13.0215 165.398 12.7832ZM175.154 13H174.193V12.0625H174.17C173.752 12.7812 173.137 13.1406 172.324 13.1406C171.727 13.1406 171.258 12.9824 170.918 12.666C170.582 12.3496 170.414 11.9297 170.414 11.4062C170.414 10.2852 171.074 9.63281 172.395 9.44922L174.193 9.19727C174.193 8.17773 173.781 7.66797 172.957 7.66797C172.234 7.66797 171.582 7.91406 171 8.40625V7.42188C171.59 7.04688 172.27 6.85938 173.039 6.85938C174.449 6.85938 175.154 7.60547 175.154 9.09766V13ZM174.193 9.96484L172.746 10.1641C172.301 10.2266 171.965 10.3379 171.738 10.498C171.512 10.6543 171.398 10.9336 171.398 11.3359C171.398 11.6289 171.502 11.8691 171.709 12.0566C171.92 12.2402 172.199 12.332 172.547 12.332C173.023 12.332 173.416 12.166 173.725 11.834C174.037 11.498 174.193 11.0742 174.193 10.5625V9.96484ZM182.086 13H181.125V11.9805H181.102C180.656 12.7539 179.969 13.1406 179.039 13.1406C178.285 13.1406 177.682 12.873 177.229 12.3379C176.779 11.7988 176.555 11.0664 176.555 10.1406C176.555 9.14844 176.805 8.35352 177.305 7.75586C177.805 7.1582 178.471 6.85938 179.303 6.85938C180.127 6.85938 180.727 7.18359 181.102 7.83203H181.125V4.11719H182.086V13ZM181.125 10.2871V9.40234C181.125 8.91797 180.965 8.50781 180.645 8.17188C180.324 7.83594 179.918 7.66797 179.426 7.66797C178.84 7.66797 178.379 7.88281 178.043 8.3125C177.707 8.74219 177.539 9.33594 177.539 10.0938C177.539 10.7852 177.699 11.332 178.02 11.7344C178.344 12.1328 178.777 12.332 179.32 12.332C179.855 12.332 180.289 12.1387 180.621 11.752C180.957 11.3652 181.125 10.877 181.125 10.2871ZM188.326 13H187.365V12.0625H187.342C186.924 12.7812 186.309 13.1406 185.496 13.1406C184.898 13.1406 184.43 12.9824 184.09 12.666C183.754 12.3496 183.586 11.9297 183.586 11.4062C183.586 10.2852 184.246 9.63281 185.566 9.44922L187.365 9.19727C187.365 8.17773 186.953 7.66797 186.129 7.66797C185.406 7.66797 184.754 7.91406 184.172 8.40625V7.42188C184.762 7.04688 185.441 6.85938 186.211 6.85938C187.621 6.85938 188.326 7.60547 188.326 9.09766V13ZM187.365 9.96484L185.918 10.1641C185.473 10.2266 185.137 10.3379 184.91 10.498C184.684 10.6543 184.57 10.9336 184.57 11.3359C184.57 11.6289 184.674 11.8691 184.881 12.0566C185.092 12.2402 185.371 12.332 185.719 12.332C186.195 12.332 186.588 12.166 186.896 11.834C187.209 11.498 187.365 11.0742 187.365 10.5625V9.96484ZM194.414 12.1328H194.391V15.7598H193.43V7H194.391V8.05469H194.414C194.887 7.25781 195.578 6.85938 196.488 6.85938C197.262 6.85938 197.865 7.12891 198.299 7.66797C198.732 8.20312 198.949 8.92188 198.949 9.82422C198.949 10.8281 198.705 11.6328 198.217 12.2383C197.729 12.8398 197.061 13.1406 196.213 13.1406C195.436 13.1406 194.836 12.8047 194.414 12.1328ZM194.391 9.71289V10.5508C194.391 11.0469 194.551 11.4688 194.871 11.8164C195.195 12.1602 195.605 12.332 196.102 12.332C196.684 12.332 197.139 12.1094 197.467 11.6641C197.799 11.2188 197.965 10.5996 197.965 9.80664C197.965 9.13867 197.811 8.61523 197.502 8.23633C197.193 7.85742 196.775 7.66797 196.248 7.66797C195.689 7.66797 195.24 7.86328 194.9 8.25391C194.561 8.64062 194.391 9.12695 194.391 9.71289ZM205.307 10.2402H201.07C201.086 10.9082 201.266 11.4238 201.609 11.7871C201.953 12.1504 202.426 12.332 203.027 12.332C203.703 12.332 204.324 12.1094 204.891 11.6641V12.5664C204.363 12.9492 203.666 13.1406 202.799 13.1406C201.951 13.1406 201.285 12.8691 200.801 12.3262C200.316 11.7793 200.074 11.0117 200.074 10.0234C200.074 9.08984 200.338 8.33008 200.865 7.74414C201.396 7.1543 202.055 6.85938 202.84 6.85938C203.625 6.85938 204.232 7.11328 204.662 7.62109C205.092 8.12891 205.307 8.83398 205.307 9.73633V10.2402ZM204.322 9.42578C204.318 8.87109 204.184 8.43945 203.918 8.13086C203.656 7.82227 203.291 7.66797 202.822 7.66797C202.369 7.66797 201.984 7.83008 201.668 8.1543C201.352 8.47852 201.156 8.90234 201.082 9.42578H204.322ZM207.727 13H206.766V4.11719H207.727V13ZM213.967 13H213.006V12.0625H212.982C212.564 12.7812 211.949 13.1406 211.137 13.1406C210.539 13.1406 210.07 12.9824 209.73 12.666C209.395 12.3496 209.227 11.9297 209.227 11.4062C209.227 10.2852 209.887 9.63281 211.207 9.44922L213.006 9.19727C213.006 8.17773 212.594 7.66797 211.77 7.66797C211.047 7.66797 210.395 7.91406 209.812 8.40625V7.42188C210.402 7.04688 211.082 6.85938 211.852 6.85938C213.262 6.85938 213.967 7.60547 213.967 9.09766V13ZM213.006 9.96484L211.559 10.1641C211.113 10.2266 210.777 10.3379 210.551 10.498C210.324 10.6543 210.211 10.9336 210.211 11.3359C210.211 11.6289 210.314 11.8691 210.521 12.0566C210.732 12.2402 211.012 12.332 211.359 12.332C211.836 12.332 212.229 12.166 212.537 11.834C212.85 11.498 213.006 11.0742 213.006 10.5625V9.96484ZM216.111 8.17188C215.932 8.17188 215.777 8.10742 215.648 7.97852C215.523 7.84961 215.461 7.69531 215.461 7.51562C215.461 7.33594 215.523 7.18359 215.648 7.05859C215.777 6.93359 215.932 6.87109 216.111 6.87109C216.295 6.87109 216.451 6.93359 216.58 7.05859C216.709 7.18359 216.773 7.33594 216.773 7.51562C216.773 7.69531 216.709 7.84961 216.58 7.97852C216.451 8.10742 216.295 8.17188 216.111 8.17188ZM216.111 13.1289C215.932 13.1289 215.777 13.0645 215.648 12.9355C215.523 12.8066 215.461 12.6523 215.461 12.4727C215.461 12.293 215.523 12.1387 215.648 12.0098C215.777 11.877 215.932 11.8105 216.111 11.8105C216.295 11.8105 216.451 11.877 216.58 12.0098C216.709 12.1387 216.773 12.293 216.773 12.4727C216.773 12.6523 216.709 12.8066 216.58 12.9355C216.451 13.0645 216.295 13.1289 216.111 13.1289Z" fill="#3B3B3B"/>
<g clip-path="url(#clip0_1972_3062)">
<path d="M169.786 42.4371C169.896 41.9217 169.852 41.3849 169.661 40.8945C169.47 40.4041 169.139 39.9821 168.711 39.6817C168.103 39.2488 167.367 39.0375 166.625 39.0824C163.334 39.0824 160.044 39.0799 156.755 39.0751C156.426 39.0751 156.307 39.1803 156.252 39.5021C155.646 42.727 155.033 45.9467 154.411 49.1612C153.534 53.7237 152.655 58.2874 151.775 62.8523C151.756 62.9094 151.75 62.9701 151.759 63.0296C151.768 63.0891 151.79 63.1458 151.824 63.1951H156.648C156.718 63.0863 156.761 62.9618 156.774 62.8324C157.276 60.2048 157.776 57.5775 158.273 54.9505C158.31 54.7537 158.391 54.7056 158.575 54.7075C159.28 54.7159 159.986 54.7159 160.691 54.7075C162.041 54.7015 163.371 54.3788 164.577 53.7645C165.615 53.2905 166.524 52.5691 167.227 51.6618C167.93 50.7545 168.405 49.6884 168.613 48.5546C169 46.51 169.419 44.4763 169.786 42.4371ZM163.607 48.6081C163.54 48.9513 163.365 49.2632 163.108 49.4975C162.852 49.7318 162.527 49.8759 162.183 49.9083C161.257 50.014 160.323 50.0443 159.391 49.999C159.189 49.999 159.273 49.8566 159.292 49.7696C159.486 48.7477 159.685 47.7268 159.882 46.7049C160.05 45.8345 160.222 44.9632 160.381 44.09C160.42 43.8751 160.49 43.7908 160.732 43.7945C161.985 43.8117 163.245 43.8017 164.544 43.8017C164.222 45.4338 163.917 47.0214 163.601 48.6072L163.607 48.6081Z" fill="#01AA00"/>
<path d="M200.604 39.0879C199.185 39.0879 197.769 39.0996 196.347 39.0797C196.203 39.0624 196.058 39.0938 195.935 39.1687C195.812 39.2436 195.718 39.3576 195.668 39.4922C194.131 42.7035 192.839 46.0127 191.553 49.3255C191.52 49.4098 191.515 49.5068 191.41 49.5703V45.6319C191.404 43.5872 191.313 41.5482 191.135 39.5149C191.11 39.2121 191.026 39.0779 190.678 39.0879C189.215 39.1078 187.752 39.1006 186.289 39.0879C186.014 39.0879 185.891 39.1305 185.933 39.456C186.238 41.8077 186.521 44.1623 186.813 46.515C187.117 48.9765 187.427 51.4389 187.723 53.9013C187.817 54.3416 187.839 54.794 187.788 55.2413C187.282 57.7574 186.785 60.2754 186.297 62.7953C186.27 62.9285 186.214 63.0799 186.352 63.1951H191.278C191.324 63.0852 191.363 62.9722 191.393 62.8569C191.801 60.7898 192.194 58.7209 192.616 56.6565C192.694 55.9264 192.875 55.211 193.155 54.5313C195.738 49.5376 198.311 44.5403 200.875 39.5394C201.084 39.1377 201.055 39.0879 200.604 39.0879Z" fill="#01AA00"/>
<path d="M182.501 39.0787C180.527 39.0902 178.554 39.0902 176.582 39.0787C176.479 39.0652 176.376 39.0896 176.291 39.1473C176.205 39.205 176.145 39.2917 176.122 39.3907C175.705 40.4889 175.271 41.579 174.838 42.6726C172.197 49.3702 169.555 56.0683 166.914 62.767C166.859 62.9094 166.77 63.0518 166.889 63.1942H171.91C172.262 62.534 172.488 61.8194 172.776 61.131C173.121 60.3003 173.451 59.4633 173.776 58.6235C173.842 58.4503 173.911 58.3642 174.123 58.3678C175.227 58.3799 176.331 58.3799 177.435 58.3678C177.645 58.3678 177.694 58.4258 177.692 58.6272C177.684 60.0101 177.692 61.3949 177.692 62.7779C177.684 62.9191 177.703 63.0606 177.747 63.1951H182.836C182.887 63.0746 182.908 62.9436 182.897 62.8133C182.897 55.0341 182.901 47.2547 182.91 39.475C182.892 39.1694 182.815 39.0715 182.501 39.0787ZM178.328 45.7215C178.161 47.7572 177.994 49.7934 177.825 51.8302C177.782 52.3553 177.733 52.8822 177.703 53.4072C177.69 53.6004 177.622 53.6666 177.414 53.6603C176.862 53.6457 176.303 53.6603 175.712 53.6603L178.288 45.3978C178.338 45.4964 178.352 45.6093 178.328 45.717V45.7215Z" fill="#01AA00"/>
<path d="M111.335 39.0754C110.648 39.0837 109.964 39.0754 109.277 39.0754H107.222C107.045 39.0754 106.968 39.1085 106.932 39.3143C106.716 40.5383 106.477 41.7585 106.248 42.9797C105.532 46.8188 104.817 50.6582 104.101 54.4978C103.579 57.2912 103.054 60.0831 102.526 62.8734C102.479 63.1187 102.526 63.1978 102.782 63.195C104.121 63.1803 105.46 63.1831 106.802 63.195C107.012 63.195 107.106 63.1417 107.141 62.9193C107.241 62.3184 107.358 61.7184 107.47 61.1183C108.209 57.1482 108.951 53.1783 109.696 49.2088C110.314 45.9137 110.918 42.6195 111.542 39.3263C111.585 39.0947 111.524 39.0717 111.335 39.0754Z" fill="#1A1A1A"/>
<path d="M123.293 58.7246C121.325 58.7421 119.36 58.7246 117.392 58.7375C117.158 58.7375 117.097 58.6897 117.143 58.449C117.82 54.9574 118.491 51.4658 119.159 47.9741C119.709 45.103 120.259 42.2329 120.807 39.3636C120.849 39.156 120.822 39.0751 120.581 39.0751C119.187 39.0867 117.792 39.0867 116.396 39.0751C116.19 39.0751 116.112 39.133 116.075 39.3388C116.017 39.7357 115.932 40.1272 115.859 40.5195C114.438 47.9622 113.009 55.4048 111.574 62.8475C111.507 63.1976 111.621 63.1967 111.884 63.1948C113.642 63.1875 115.399 63.1948 117.157 63.1948H122.496C122.733 63.1948 122.817 63.1259 122.858 62.898C123.092 61.6309 123.332 60.3648 123.592 59.1014C123.65 58.8073 123.615 58.7237 123.293 58.7246Z" fill="#1A1A1A"/>
<path d="M84.1096 38.0743C82.1376 38.0876 80.1649 38.0876 78.1916 38.0743C78.0975 38.0597 78.0014 38.0822 77.9231 38.1373C77.8448 38.1924 77.7903 38.2759 77.7706 38.3706C76.9848 40.4512 76.1865 42.5273 75.3927 44.6052L68.4198 62.8454C68.2875 63.189 68.2893 63.189 68.662 63.189H72.953C73.0407 63.2055 73.1313 63.1875 73.2064 63.1387C73.2816 63.09 73.3357 63.0141 73.358 62.9263C73.9328 61.3983 74.5318 59.8795 75.1146 58.3624C75.1328 58.2774 75.182 58.2025 75.2524 58.1531C75.3228 58.1036 75.409 58.0833 75.4937 58.0961C76.7094 58.1076 77.9252 58.1076 79.141 58.0961C79.3681 58.0961 79.4289 58.1542 79.4217 58.3815C79.4092 59.8576 79.4217 61.3329 79.4003 62.8027C79.4003 63.0881 79.4476 63.1935 79.7578 63.189C81.1774 63.169 82.5988 63.1717 84.0184 63.189C84.3099 63.189 84.3984 63.1236 84.3975 62.8127C84.3862 58.7484 84.3862 54.6844 84.3975 50.6207H84.4198V38.3979C84.4234 38.1543 84.3716 38.0743 84.1096 38.0743ZM79.6908 49.8518C79.6014 50.9598 79.512 52.0678 79.4315 53.1767C79.4163 53.3822 79.3627 53.4549 79.1508 53.4494C78.534 53.434 77.9163 53.4394 77.2995 53.4494C77.1117 53.4494 77.0188 53.4394 77.0903 53.2013C78.1106 49.8551 79.1258 46.508 80.136 43.16C80.1691 43.0736 80.207 42.9892 80.2495 42.9073C80.0582 45.2715 79.8741 47.5639 79.6908 49.8554V49.8518Z" fill="#1A1A1A"/>
<path d="M101.047 48.9018C99.0763 48.9092 97.1063 48.9018 95.1335 48.9101C94.8942 48.9101 94.8392 48.8513 94.8852 48.6106C95.1976 47.0302 95.5022 45.4486 95.7989 43.8658C95.8459 43.615 95.9407 43.536 96.2016 43.5369C98.578 43.5497 100.953 43.5369 103.33 43.5552C103.66 43.5552 103.748 43.4432 103.8 43.1455C104.019 41.8959 104.253 40.6512 104.502 39.4114C104.559 39.1229 104.487 39.0843 104.231 39.0852C102.245 39.0953 100.264 39.0852 98.28 39.0852C96.2964 39.0852 94.3597 39.0953 92.3987 39.0751C92.0628 39.0751 91.9735 39.1872 91.9112 39.4959C91.587 41.2766 91.2448 43.0554 90.9054 44.8306C89.7557 50.8427 88.6042 56.8545 87.451 62.866C87.3968 63.1417 87.4781 63.1977 87.7345 63.195C89.0707 63.183 90.4061 63.1803 91.7423 63.195C92.0258 63.195 92.1233 63.116 92.1784 62.8275C92.7454 59.7954 93.3287 56.7633 93.8939 53.7229C93.948 53.4344 94.0356 53.3554 94.33 53.3554C96.2892 53.3701 98.2502 53.3554 100.209 53.3673C100.413 53.3673 100.524 53.3352 100.571 53.1064C100.809 51.809 101.048 50.5107 101.315 49.2133C101.377 48.923 101.291 48.9 101.047 48.9018Z" fill="#1A1A1A"/>
<path d="M148.74 51.1289V39.4073C148.74 39.1437 148.674 39.0775 148.423 39.0784C146.583 39.0901 144.743 39.0901 142.902 39.0784C142.811 39.0656 142.718 39.0897 142.643 39.1457C142.568 39.2017 142.516 39.2854 142.498 39.3797C142.262 40.0457 142.005 40.7035 141.757 41.3658C139.086 48.5261 136.414 55.6855 133.742 62.844C133.615 63.1839 133.615 63.1839 133.983 63.1839C135.306 63.1839 136.636 63.1839 137.964 63.1912C138.061 63.2052 138.159 63.1807 138.24 63.1225C138.321 63.0643 138.377 62.9767 138.399 62.8771C138.928 61.4357 139.479 60.0045 140.012 58.5641C140.03 58.4735 140.081 58.3934 140.154 58.34C140.226 58.2865 140.316 58.2635 140.404 58.2757C141.506 58.2904 142.609 58.2904 143.711 58.2757C143.969 58.2757 144.054 58.3363 144.051 58.6202C144.037 60.0229 144.051 61.4257 144.036 62.8275C144.036 63.1361 144.124 63.1894 144.395 63.1866C145.718 63.1719 147.049 63.1692 148.376 63.1866C148.675 63.1866 148.723 63.0948 148.721 62.8118C148.713 58.9151 148.713 55.0183 148.721 51.1215L148.74 51.1289ZM144.694 45.3416C144.481 48.0907 144.269 50.8395 144.056 53.588C144.043 53.7478 144.028 53.8562 143.826 53.8516C143.163 53.8397 142.502 53.8516 141.796 53.8516C142.782 50.5088 143.755 47.2211 144.725 43.9306L144.793 43.9434C144.758 44.4018 144.736 44.8703 144.694 45.3388V45.3416Z" fill="#1A1A1A"/>
<path d="M134.498 39.0751C133.094 39.0837 131.691 39.0837 130.288 39.0751C130.122 39.0751 130.077 39.1367 130.052 39.2984C129.963 39.8498 129.847 40.3902 129.745 40.9352C128.963 45.1276 128.181 49.3189 127.399 53.509C126.815 56.6434 126.228 59.7756 125.64 62.9058C125.601 63.1116 125.627 63.2044 125.866 63.1943C126.539 63.1769 127.214 63.1943 127.889 63.1943C128.563 63.1943 129.238 63.1842 129.913 63.1943C130.121 63.1943 130.215 63.142 130.254 62.9186C130.393 62.0869 130.555 61.2571 130.71 60.4281L133.058 47.8543C133.588 45.0067 134.118 42.1577 134.648 39.3076C134.68 39.1596 134.708 39.0733 134.498 39.0751Z" fill="#1A1A1A"/>
<path d="M57.5249 42.8912C57.0621 42.8149 56.6657 42.7035 56.2559 42.6631C55.1591 42.5266 54.0456 42.6453 53.0022 43.0098C51.9588 43.3744 51.0138 43.9749 50.241 44.7646C46.7727 48.1995 43.3181 51.6466 39.8774 55.1059L29.0113 65.9565C28.9293 66.028 28.8554 66.1084 28.7912 66.1963C28.732 66.2766 28.706 66.3766 28.7186 66.4755C28.7311 66.5745 28.7812 66.6648 28.8586 66.7279C28.924 66.7959 29.0126 66.8369 29.1068 66.8427C29.201 66.8485 29.2939 66.8188 29.3672 66.7593C29.468 66.6768 29.5623 66.5868 29.6494 66.4899C36.6939 59.4544 43.745 52.4225 50.8027 45.3942C51.6764 44.5062 52.7771 43.8746 53.9849 43.568C55.1927 43.2615 56.4616 43.2917 57.6534 43.6555C58.2787 43.8186 58.8454 44.154 59.289 44.6236C60.2776 45.6358 61.2886 46.6272 62.2897 47.6295C63.5816 48.9153 64.3115 50.6599 64.3199 52.4819C64.3284 54.304 63.6146 56.0552 62.3347 57.3529C58.9583 60.7548 55.5577 64.1316 52.1642 67.5173C52.0383 67.6573 51.8852 67.7702 51.7141 67.849C51.5431 67.9279 51.3578 67.9712 51.1695 67.9761C50.9812 67.9811 50.7939 67.9476 50.619 67.8779C50.444 67.8081 50.2852 67.7034 50.152 67.5703C50.0189 67.4371 49.9143 67.2783 49.8447 67.1034C49.775 66.9285 49.7417 66.7413 49.7469 66.5531C49.752 66.365 49.7954 66.1798 49.8745 66.009C49.9536 65.8382 50.0667 65.6852 50.2069 65.5595C50.9726 64.7863 51.7481 64.0202 52.5165 63.2497C52.6614 63.1253 52.7791 62.9724 52.8622 62.8005C52.9454 62.6286 52.9921 62.4415 52.9996 62.2507C53.0071 62.06 52.9751 61.8698 52.9057 61.6919C52.8363 61.5141 52.7309 61.3524 52.5962 61.2171C52.4615 61.0818 52.3003 60.9757 52.1226 60.9054C51.945 60.8352 51.7548 60.8023 51.5639 60.8088C51.373 60.8153 51.1855 60.8611 51.0131 60.9433C50.8406 61.0255 50.687 61.1423 50.5619 61.2865C48.1252 63.7179 45.6895 66.1507 43.2546 68.5851C43.0197 68.8508 42.6916 69.0161 42.3382 69.0467C41.9847 69.0773 41.633 68.9709 41.3559 68.7496C41.0788 68.5283 40.8974 68.2089 40.8494 67.8577C40.8013 67.5064 40.8903 67.1502 41.0978 66.8626C41.1916 66.7422 41.2943 66.629 41.4051 66.524C44.7189 63.2131 48.0339 59.9037 51.35 56.5958C51.5639 56.416 51.7187 56.176 51.7942 55.9071C51.8696 55.6381 51.8624 55.3527 51.7733 55.088C51.7064 54.8804 51.5909 54.6919 51.4363 54.538C51.2817 54.3841 51.0926 54.2693 50.8847 54.2033C50.6767 54.1372 50.456 54.1217 50.2409 54.1581C50.0258 54.1945 49.8225 54.2818 49.6479 54.4126C49.5274 54.5064 49.4142 54.609 49.3091 54.7198C46.9276 57.0979 44.5452 59.4757 42.1618 61.8532C42.0002 62.0312 41.795 62.1641 41.5664 62.2389C41.3378 62.3137 41.0937 62.3277 40.858 62.2797C40.6223 62.2317 40.4032 62.1233 40.2221 61.965C40.041 61.8068 39.9043 61.6042 39.8252 61.3772C39.7653 61.1908 39.7428 60.9944 39.759 60.7993C39.7752 60.6042 39.8298 60.4142 39.9196 60.2402L39.8396 60.1765C39.7738 60.2818 39.7002 60.3821 39.6194 60.4764C34.5227 65.5655 29.4277 70.6546 24.3346 75.7437C24.1626 75.9496 23.9363 76.1034 23.6814 76.1875C23.4265 76.2716 23.1531 76.2828 22.8922 76.2197C22.6558 76.161 22.4391 76.041 22.264 75.8718C22.089 75.7026 21.9617 75.4902 21.8951 75.2561C21.8286 75.0219 21.825 74.7744 21.8849 74.5385C21.9448 74.3025 22.066 74.0866 22.2361 73.9125C22.5785 73.5479 22.9416 73.2075 23.2984 72.8483L26.8114 69.3368C26.9478 69.2096 27.0573 69.0563 27.1332 68.886C27.2091 68.7156 27.2498 68.5317 27.2531 68.3453C27.2563 68.1588 27.2219 67.9736 27.1519 67.8008C27.082 67.6279 26.9779 67.4709 26.8459 67.3391C26.7139 67.2073 26.5567 67.1034 26.3836 67.0337C26.2105 66.9639 26.0252 66.9297 25.8386 66.9331C25.6521 66.9365 25.4681 66.9774 25.2977 67.0534C25.1273 67.1294 24.974 67.2389 24.8468 67.3754C24.7435 67.4742 24.6455 67.5739 24.5449 67.6745C22.1783 70.0346 19.8118 72.3995 17.4452 74.7693C17.3227 74.9117 17.1725 75.0278 17.0038 75.1106C16.8351 75.1934 16.6514 75.2411 16.4637 75.251C16.276 75.2609 16.0883 75.2327 15.9118 75.1681C15.7353 75.1034 15.5738 75.0037 15.4369 74.875C15.3001 74.7462 15.1908 74.5911 15.1156 74.419C15.0404 74.2469 15.0008 74.0613 14.9994 73.8735C14.9979 73.6857 15.0346 73.4995 15.1071 73.3262C15.1796 73.153 15.2866 72.9962 15.4214 72.8653C16.5951 71.6799 17.7778 70.5079 18.9586 69.3296C19.6213 68.671 20.2836 68.0086 20.9456 67.3422C21.09 67.217 21.2071 67.0634 21.2895 66.8909C21.3719 66.7185 21.4178 66.531 21.4245 66.34C21.4312 66.1491 21.3984 65.9588 21.3283 65.781C21.2581 65.6033 21.152 65.4419 21.0167 65.3069C20.8814 65.1719 20.7197 65.0663 20.5417 64.9965C20.3637 64.9267 20.1732 64.8943 19.9822 64.9013C19.7911 64.9083 19.6035 64.9546 19.4311 65.0373C19.2587 65.1199 19.1052 65.2372 18.9802 65.3817C16.5573 67.7969 14.1375 70.2142 11.7206 72.6336C11.5459 72.8376 11.3162 72.9871 11.0589 73.0643C10.8016 73.1415 10.5275 73.1432 10.2692 73.0692C10.0448 73.0083 9.83948 72.8915 9.67239 72.7299C9.50529 72.5683 9.38185 72.367 9.31358 72.1448C9.24531 71.9227 9.23442 71.6869 9.28194 71.4594C9.32945 71.2319 9.43382 71.0201 9.58532 70.8438C9.67519 70.7369 9.78123 70.6408 9.88189 70.5411C14.9301 65.4987 19.9792 60.4576 25.0293 55.4176C25.2481 55.2351 25.4072 54.9912 25.4858 54.7174C25.5645 54.4436 25.5592 54.1526 25.4705 53.8819C25.4013 53.6689 25.2811 53.476 25.1205 53.3198C24.9598 53.1636 24.7636 53.0489 24.5486 52.9856C24.3336 52.9223 24.1065 52.9122 23.8868 52.9564C23.667 53.0005 23.4614 53.0974 23.2876 53.2388C23.1618 53.3421 23.0495 53.4616 22.9335 53.5774C17.1268 59.3736 11.3228 65.1703 5.52146 70.9677C5.3406 71.188 5.09827 71.3497 4.82527 71.432C4.55228 71.5144 4.26094 71.5137 3.9883 71.4302C3.77405 71.3648 3.57901 71.2481 3.42006 71.0904C3.26112 70.9326 3.14307 70.7385 3.07614 70.5249C3.00922 70.3112 2.99544 70.0845 3.03599 69.8643C3.07655 69.6442 3.17022 69.4372 3.30889 69.2614C3.40673 69.1442 3.51178 69.0332 3.62343 68.9291C7.73822 64.8177 11.8545 60.7078 15.9723 56.5994C16.1793 56.4291 16.3341 56.2041 16.4191 55.95C16.5041 55.6959 16.5159 55.423 16.4531 55.1625C16.398 54.934 16.2854 54.7233 16.126 54.5505C15.9666 54.3776 15.7656 54.2484 15.5422 54.175C15.3187 54.1015 15.0802 54.0864 14.8492 54.131C14.6183 54.1756 14.4026 54.2784 14.2225 54.4297C14.1237 54.5144 14.0295 54.6043 13.9404 54.6991L6.40217 62.2295C6.24112 62.4153 6.03419 62.5558 5.80195 62.637C5.56971 62.7181 5.32026 62.7371 5.0784 62.692C4.83322 62.6472 4.60469 62.537 4.41691 62.3732C4.22913 62.2095 4.08906 61.9981 4.01149 61.7614C3.93391 61.5246 3.9217 61.2714 3.97614 61.0283C4.03058 60.7853 4.14966 60.5614 4.32081 60.3803C4.532 60.1468 4.76386 59.9313 4.98764 59.7068C6.49863 58.2034 8.00842 56.694 9.51702 55.1787C9.65244 55.0498 9.76045 54.8949 9.83457 54.7233C9.90869 54.5517 9.9474 54.3669 9.94839 54.18C9.94938 53.9932 9.91263 53.808 9.84033 53.6356C9.76803 53.4633 9.66168 53.3072 9.52763 53.1769C9.39358 53.0466 9.2346 52.9446 9.06019 52.8771C8.88579 52.8096 8.69955 52.778 8.51263 52.7841C8.32571 52.7902 8.14194 52.834 7.97233 52.9127C7.80272 52.9915 7.65075 53.1036 7.52553 53.2424C5.84079 54.9362 4.15395 56.624 2.46502 58.3058C2.3063 58.4868 2.10365 58.624 1.87655 58.7043C1.64946 58.7845 1.40553 58.805 1.16822 58.7638C0.922405 58.7324 0.690555 58.632 0.499641 58.4741C0.308727 58.3162 0.166598 58.1074 0.0897909 57.872C-0.000656096 57.6369 -0.023339 57.3812 0.0243169 57.1339C0.0719729 56.8865 0.188059 56.6575 0.359397 56.4728C0.423204 56.3983 0.500491 56.3318 0.565196 56.2627L30.7018 26.1709C31.7203 25.0999 33.0542 24.3816 34.5095 24.1206C35.59 23.9147 36.7042 23.9731 37.7572 24.2907C38.8102 24.6083 39.7707 25.1757 40.5568 25.9446C40.7176 26.0856 40.8668 26.2517 41.0196 26.4071C41.0372 26.4336 41.0519 26.4619 41.0636 26.4915C40.5604 26.3409 40.0471 26.2257 39.5278 26.1467C38.2077 25.94 36.8574 26.0524 35.5896 26.4742C34.3219 26.8961 33.1738 27.6152 32.2412 28.5715C28.3149 32.4655 24.4101 36.3847 20.4954 40.2976L10.3402 50.436C10.271 50.5051 10.1991 50.577 10.1326 50.6443C10.0907 50.6819 10.0569 50.7276 10.0333 50.7786C10.0097 50.8297 9.99669 50.885 9.99517 50.9413C9.99365 50.9975 10.0036 51.0534 10.0244 51.1057C10.0453 51.158 10.0766 51.2054 10.1164 51.2452C10.1562 51.285 10.2037 51.3162 10.256 51.3371C10.3083 51.3579 10.3642 51.3678 10.4205 51.3663C10.4768 51.3648 10.5322 51.3518 10.5832 51.3282C10.6343 51.3046 10.6801 51.2708 10.7177 51.229C10.7896 51.1625 10.8588 51.088 10.9262 51.0215C18.1408 43.8166 25.3531 36.6131 32.563 29.4112C33.4546 28.4871 34.5461 27.7795 35.7539 27.3425C36.9617 26.9055 38.2536 26.7508 39.5305 26.8903C40.9253 26.9807 42.2376 27.5829 43.2151 28.5813C47.8775 33.2663 52.5531 37.9387 57.2418 42.5985C57.3254 42.6811 57.4009 42.7691 57.5249 42.8912Z" fill="#01AA00"/>
<path d="M44.22 43.6083C44.2179 45.4977 43.6552 47.3439 42.6032 48.9134C41.5512 50.4828 40.0572 51.7048 38.3104 52.4247C36.5635 53.1446 34.6423 53.33 32.79 52.9575C30.9377 52.585 29.2376 51.6712 27.9049 50.332C26.5722 48.9927 25.6668 47.2881 25.3033 45.434C24.9399 43.5799 25.1347 41.6597 25.8632 39.9163C26.5916 38.173 27.821 36.6851 29.3955 35.6408C30.9701 34.5965 32.8191 34.0429 34.7085 34.05C37.2363 34.0595 39.6571 35.0711 41.4402 36.8629C43.2232 38.6547 44.2229 41.0805 44.22 43.6083Z" fill="#FDFDFD"/>
<path d="M35.1452 51.135C33.5547 51.1291 32.0017 50.6516 30.6827 49.7629C29.3636 48.8742 28.3378 47.6143 27.7349 46.1425C27.1321 44.6707 26.9793 43.0531 27.2959 41.4945C27.6126 39.9358 28.3844 38.5061 29.5137 37.3862C30.6431 36.2662 32.0792 35.5064 33.6405 35.2029C35.2017 34.8993 36.8179 35.0656 38.2846 35.6808C39.7514 36.2959 41.0027 37.3323 41.8803 38.6587C42.7579 39.9852 43.2223 41.5421 43.2149 43.1326C43.205 45.2636 42.3494 47.3034 40.8363 48.8039C39.3232 50.3045 37.2762 51.1429 35.1452 51.135Z" fill="#01AA00"/>
<path d="M43.215 43.0952C43.215 44.6878 42.742 46.2444 41.8561 47.5678C40.9701 48.8911 39.7111 49.9216 38.2388 50.5284C36.7664 51.1353 35.147 51.2912 33.5858 50.9764C32.0247 50.6617 30.5923 49.8904 29.4701 48.7604C28.348 47.6304 27.5866 46.1925 27.2828 44.6293C26.9789 43.066 27.1461 41.4477 27.7632 39.9796C28.3803 38.5115 29.4195 37.2597 30.7489 36.383C32.0784 35.5063 33.6383 35.0442 35.2308 35.0552C37.3535 35.07 39.3842 35.9236 40.8799 37.4298C42.3757 38.936 43.2151 40.9725 43.215 43.0952Z" fill="#FDFDFD"/>
<path d="M36.712 46.2003C36.0946 45.5887 35.4903 44.9967 34.8962 44.3935C34.877 44.3672 34.8525 44.3451 34.8244 44.3286C34.7962 44.3121 34.765 44.3017 34.7326 44.2978C34.7002 44.294 34.6673 44.2968 34.6361 44.3063C34.6049 44.3157 34.5759 44.3314 34.5511 44.3525C34.0916 44.6408 33.5814 44.8392 33.0476 44.9371C32.557 45.0125 32.055 44.9325 31.6122 44.7084C31.1694 44.4844 30.808 44.1275 30.5789 43.6879C30.3026 43.2849 30.1532 42.8087 30.15 42.3204C30.1469 41.8321 30.2901 41.354 30.5612 40.9475C30.6684 40.766 30.9259 40.6235 30.8858 40.429C30.8503 40.2624 30.6311 40.1255 30.4772 39.9906C30.3234 39.8556 30.37 39.7951 30.4875 39.6778C30.9175 39.2394 30.9268 39.2263 31.3455 39.6694C31.5125 39.8463 31.6123 39.8155 31.7848 39.6899C32.2642 39.2838 32.875 39.0655 33.5036 39.0754C34.1323 39.0853 34.7359 39.3229 35.2021 39.7439C35.3485 39.8649 35.3718 39.9366 35.2226 40.0725C34.9428 40.3322 34.663 40.6031 34.4093 40.886C34.2526 41.0601 34.1398 41.1085 33.9514 40.9223C33.772 40.749 33.5445 40.6335 33.2985 40.591C33.1323 40.5536 32.9584 40.5726 32.8042 40.6449C32.5981 40.7473 32.5114 40.8404 32.7315 41.0508C33.2043 41.4892 33.6567 41.9463 34.0997 42.4136C34.1255 42.449 34.1583 42.4789 34.1959 42.5014C34.2336 42.524 34.2754 42.5388 34.3188 42.545C34.3623 42.5512 34.4066 42.5486 34.4491 42.5373C34.4915 42.5261 34.5313 42.5065 34.566 42.4797C35.0048 42.2482 35.4656 42.0611 35.9417 41.9211C36.2337 41.8351 36.5403 41.81 36.8425 41.8475C37.1447 41.885 37.4358 41.9842 37.6979 42.139C38.0606 42.3332 38.3754 42.6056 38.6196 42.9363C38.8638 43.267 39.0313 43.6478 39.1098 44.0511C39.1884 44.4544 39.1761 44.8701 39.0738 45.268C38.9716 45.666 38.7819 46.0362 38.5186 46.352C38.3507 46.5726 38.3461 46.689 38.5568 46.8602C38.7676 47.0315 38.9215 47.2326 39.1164 47.4048C39.2321 47.5081 39.2097 47.5658 39.1164 47.6692C38.6697 48.1486 38.6771 48.1523 38.2062 47.685C37.7352 47.2177 37.7492 47.2307 37.211 47.5826C36.6965 47.9876 36.0434 48.1755 35.3918 48.1059C34.7402 48.0363 34.1418 47.7148 33.7248 47.2102C33.6044 47.0892 33.5783 47.0185 33.7173 46.8928C34.0288 46.6005 34.3319 46.2943 34.6276 45.9825C34.746 45.8568 34.8309 45.8521 34.9596 45.9648C35.1438 46.1321 35.3559 46.266 35.5863 46.3604C35.7712 46.4365 35.9731 46.4618 36.1711 46.4336C36.3691 46.4055 36.5558 46.3249 36.712 46.2003Z" fill="#01AA00"/>
<path d="M36.18 43.354C36.3947 43.1859 36.6563 43.095 36.9252 43.095C37.1941 43.095 37.4557 43.1859 37.6704 43.354C37.8886 43.5132 38.0507 43.7421 38.1319 44.0059C38.2131 44.2696 38.2091 44.5537 38.1204 44.8148C37.9741 45.1776 37.9434 45.1863 37.6816 44.9183L36.18 43.354Z" fill="#FDFDFD"/>
<path d="M34.17 42.8174C33.9329 43.0151 33.6335 43.1131 33.3306 43.0922C33.0277 43.0713 32.7433 42.933 32.5333 42.7044C32.3418 42.5237 32.2152 42.2803 32.1743 42.0144C32.1334 41.7485 32.1807 41.476 32.3083 41.2418C32.3733 41.1224 32.4187 41.0019 32.5725 41.1622C33.0988 41.7165 33.6334 42.2621 34.17 42.8174Z" fill="#FDFDFD"/>
</g>
<defs>
<clipPath id="clip0_1972_3062">
<rect width="201" height="52.26" fill="white" transform="translate(0 24)"/>
</clipPath>
</defs>
</svg>
