<svg width="249" height="60" viewBox="0 0 249 60" fill="none" xmlns="http://www.w3.org/2000/svg">
<path d="M76 41H94V35.7552H82.3976V16H76V41Z" fill="#340E0E"/>
<path d="M103.483 37.9336C101.016 37.9336 99.7313 35.7601 99.7313 32.5C99.7313 29.2399 101.016 27.0314 103.483 27.0314C105.949 27.0314 107.269 29.2399 107.269 32.5C107.269 35.7601 105.949 37.9336 103.483 37.9336ZM103.517 42C109.249 42 113 37.8985 113 32.5C113 27.1015 109.249 23 103.517 23C97.8208 23 94 27.1015 94 32.5C94 37.8985 97.8208 42 103.517 42Z" fill="#340E0E"/>
<path d="M123.087 48C125.733 48 128.066 47.3963 129.632 45.9758C131.06 44.6619 132 42.6733 132 39.9389V23.5327H126.569V25.4858H126.499C125.455 23.9588 123.853 23 121.485 23C117.064 23 114 26.7642 114 32.0909C114 37.6662 117.725 40.7202 121.729 40.7202C123.888 40.7202 125.246 39.8324 126.29 38.625H126.429V40.4361C126.429 42.6378 125.42 43.9162 123.017 43.9162C121.137 43.9162 120.197 43.0994 119.884 42.1406H114.383C114.94 45.9403 118.178 48 123.087 48ZM123.052 36.4233C120.928 36.4233 119.536 34.6477 119.536 31.9134C119.536 29.1435 120.928 27.3679 123.052 27.3679C125.42 27.3679 126.673 29.4276 126.673 31.8778C126.673 34.4347 125.524 36.4233 123.052 36.4233Z" fill="#340E0E"/>
<path d="M143.483 37.9336C141.016 37.9336 139.731 35.7601 139.731 32.5C139.731 29.2399 141.016 27.0314 143.483 27.0314C145.949 27.0314 147.269 29.2399 147.269 32.5C147.269 35.7601 145.949 37.9336 143.483 37.9336ZM143.517 42C149.249 42 153 37.8985 153 32.5C153 27.1015 149.249 23 143.517 23C137.821 23 134 27.1015 134 32.5C134 37.8985 137.821 42 143.517 42Z" fill="#340E0E"/>
<path d="M155 41H161V23.0979H155V41ZM155 20.6154H161V16H155V20.6154Z" fill="#340E0E"/>
<path d="M163 47H168.81V39.3448H168.882C170.023 40.8276 171.698 41.7241 174.051 41.7241C178.827 41.7241 182 38.069 182 32.3448C182 27.0345 179.041 23 174.193 23C171.698 23 169.916 24.069 168.668 25.6552H168.561V23.5172H163V47ZM172.553 37.3793C170.058 37.3793 168.632 35.4138 168.632 32.5517C168.632 29.6897 169.916 27.5172 172.447 27.5172C174.942 27.5172 176.118 29.5172 176.118 32.5517C176.118 35.5517 174.764 37.3793 172.553 37.3793Z" fill="#340E0E"/>
<path d="M191.782 42C196.508 42 200 39.9705 200 36.0516C200 31.4678 196.261 30.663 193.087 30.1381C190.795 29.7182 188.749 29.5433 188.749 28.2836C188.749 27.1639 189.842 26.639 191.253 26.639C192.84 26.639 193.934 27.1289 194.145 28.7385H199.436C199.154 25.2044 196.402 23 191.288 23C187.021 23 183.494 24.9595 183.494 28.7385C183.494 32.9374 186.844 33.7772 189.983 34.302C192.382 34.7219 194.568 34.8969 194.568 36.5064C194.568 37.6611 193.475 38.291 191.747 38.291C189.842 38.291 188.643 37.4162 188.432 35.6317H183C183.176 39.5856 186.492 42 191.782 42Z" fill="#340E0E"/>
<path d="M207.22 42C209.673 42 211.228 40.9905 212.506 39.1879H212.61V41.4592H218V23H212.368V33.3112C212.368 35.5104 211.193 37.0247 209.258 37.0247C207.461 37.0247 206.598 35.907 206.598 33.888V23H201V35.1139C201 39.2239 203.142 42 207.22 42Z" fill="#340E0E"/>
<path d="M221 42H226.741V31.6528C226.741 29.4535 227.797 27.9032 229.594 27.9032C231.319 27.9032 232.13 29.0569 232.13 31.0398V42H237.87V31.6528C237.87 29.4535 238.892 27.9032 240.723 27.9032C242.449 27.9032 243.259 29.0569 243.259 31.0398V42H249V29.9943C249 25.8482 246.957 23 242.872 23C240.547 23 238.61 24.0095 237.201 26.2448H237.131C236.215 24.2619 234.419 23 232.059 23C229.453 23 227.727 24.2619 226.6 26.1727H226.494V23.5408H221V42Z" fill="#340E0E"/>
<path fill-rule="evenodd" clip-rule="evenodd" d="M30.5 59C46.7924 59 60 45.7924 60 29.5C60 13.2076 46.7924 0 30.5 0C14.2076 0 1 13.2076 1 29.5C1 45.7924 14.2076 59 30.5 59ZM39.703 13.7423C40.1509 12.1511 38.6068 11.2102 37.1965 12.2149L17.5098 26.2396C15.9804 27.3292 16.221 29.5 17.8712 29.5H23.0552V29.4599H33.1587L24.9263 32.3646L21.2971 45.2577C20.8491 46.8489 22.3931 47.7898 23.8035 46.7851L43.4902 32.7605C45.0196 31.6709 44.7789 29.5 43.1288 29.5H35.2674L39.703 13.7423Z" fill="#F15757"/>
</svg>
