<svg width="20" height="17" viewBox="0 0 20 17" fill="none" xmlns="http://www.w3.org/2000/svg">
<path d="M2 16.5C1.45 16.5 0.979167 16.3042 0.5875 15.9125C0.195833 15.5208 0 15.05 0 14.5V10.5C0.55 10.5 1.02083 10.3042 1.4125 9.9125C1.80417 9.52083 2 9.05 2 8.5C2 7.95 1.80417 7.47917 1.4125 7.0875C1.02083 6.69583 0.55 6.5 0 6.5V2.5C0 1.95 0.195833 1.47917 0.5875 1.0875C0.979167 0.695833 1.45 0.5 2 0.5H18C18.55 0.5 19.0208 0.695833 19.4125 1.0875C19.8042 1.47917 20 1.95 20 2.5V6.5C19.45 6.5 18.9792 6.69583 18.5875 7.0875C18.1958 7.47917 18 7.95 18 8.5C18 9.05 18.1958 9.52083 18.5875 9.9125C18.9792 10.3042 19.45 10.5 20 10.5V14.5C20 15.05 19.8042 15.5208 19.4125 15.9125C19.0208 16.3042 18.55 16.5 18 16.5H2ZM2 14.5H18V11.95C17.3833 11.5833 16.8958 11.0958 16.5375 10.4875C16.1792 9.87917 16 9.21667 16 8.5C16 7.78333 16.1792 7.12083 16.5375 6.5125C16.8958 5.90417 17.3833 5.41667 18 5.05V2.5H2V5.05C2.61667 5.41667 3.10417 5.90417 3.4625 6.5125C3.82083 7.12083 4 7.78333 4 8.5C4 9.21667 3.82083 9.87917 3.4625 10.4875C3.10417 11.0958 2.61667 11.5833 2 11.95V14.5ZM10 13.5C10.2833 13.5 10.5208 13.4042 10.7125 13.2125C10.9042 13.0208 11 12.7833 11 12.5C11 12.2167 10.9042 11.9792 10.7125 11.7875C10.5208 11.5958 10.2833 11.5 10 11.5C9.71667 11.5 9.47917 11.5958 9.2875 11.7875C9.09583 11.9792 9 12.2167 9 12.5C9 12.7833 9.09583 13.0208 9.2875 13.2125C9.47917 13.4042 9.71667 13.5 10 13.5ZM10 9.5C10.2833 9.5 10.5208 9.40417 10.7125 9.2125C10.9042 9.02083 11 8.78333 11 8.5C11 8.21667 10.9042 7.97917 10.7125 7.7875C10.5208 7.59583 10.2833 7.5 10 7.5C9.71667 7.5 9.47917 7.59583 9.2875 7.7875C9.09583 7.97917 9 8.21667 9 8.5C9 8.78333 9.09583 9.02083 9.2875 9.2125C9.47917 9.40417 9.71667 9.5 10 9.5ZM10 5.5C10.2833 5.5 10.5208 5.40417 10.7125 5.2125C10.9042 5.02083 11 4.78333 11 4.5C11 4.21667 10.9042 3.97917 10.7125 3.7875C10.5208 3.59583 10.2833 3.5 10 3.5C9.71667 3.5 9.47917 3.59583 9.2875 3.7875C9.09583 3.97917 9 4.21667 9 4.5C9 4.78333 9.09583 5.02083 9.2875 5.2125C9.47917 5.40417 9.71667 5.5 10 5.5Z" fill="#01AA00"/>
</svg>
